<svg width="25" height="25" viewBox="0 0 25 25" fill="rgba(33, 37, 41, 0.85)" xmlns="http://www.w3.org/2000/svg">
    <g clip-path="url(#clip0)">
        <path d="M13.7082 12.8333C13.6532 12.7881 13.6094 12.7306 13.5805 12.6655C13.5516 12.6004 13.5382 12.5295 13.5415 12.4583V7.75C13.5413 7.67522 13.5565 7.60121 13.5863 7.53262C13.6161 7.46403 13.6598 7.40235 13.7146 7.35146C13.7694 7.30058 13.8341 7.26159 13.9047 7.23696C13.9753 7.21233 14.0503 7.20258 14.1248 7.20833C14.196 7.20833 14.2664 7.22234 14.3321 7.24956C14.3978 7.27678 14.4576 7.31668 14.5078 7.36698C14.5581 7.41728 14.598 7.47699 14.6253 7.54271C14.6525 7.60843 14.6665 7.67887 14.6665 7.75V12.2083L17.8748 15.4167C17.9744 15.5244 18.0297 15.6658 18.0297 15.8125C18.0297 15.9592 17.9744 16.1006 17.8748 16.2083C17.7671 16.3079 17.6257 16.3632 17.479 16.3632C17.3323 16.3632 17.1909 16.3079 17.0832 16.2083L13.7082 12.8333Z"
              />
        <path d="M15.167 23.375C13.3712 23.5757 11.5537 23.331 9.87494 22.6624C8.19623 21.9938 6.70806 20.922 5.54199 19.5416C5.49252 19.4997 5.45352 19.4468 5.42811 19.3871C5.40269 19.3274 5.39157 19.2626 5.39561 19.1978C5.39966 19.1331 5.41877 19.0702 5.45141 19.0141C5.48406 18.9581 5.52934 18.9104 5.58366 18.875L6.08366 18.5C6.13196 18.4594 6.18811 18.4293 6.24859 18.4114C6.30907 18.3936 6.37259 18.3884 6.43516 18.3962C6.49774 18.4041 6.55803 18.4247 6.61226 18.4569C6.66648 18.4891 6.71349 18.5321 6.75032 18.5833C7.79476 19.7926 9.12737 20.7189 10.6248 21.2766C12.1223 21.8342 13.7362 22.0051 15.3172 21.7735C16.8982 21.5418 18.3953 20.9151 19.6698 19.9514C20.9444 18.9876 21.9553 17.7179 22.6089 16.2598C23.2625 14.8017 23.5378 13.2023 23.4093 11.6096C23.2807 10.0169 22.7525 8.48229 21.8735 7.14788C20.9945 5.81347 19.7931 4.72233 18.3805 3.97545C16.9679 3.22856 15.3897 2.85006 13.792 2.87497C11.5894 2.94146 9.47561 3.7585 7.8009 5.19072C6.12619 6.62293 4.99108 8.58435 4.58366 10.75H7.12532C7.14721 10.7418 7.1705 10.7379 7.19386 10.7387C7.21722 10.7395 7.2402 10.7449 7.26148 10.7546C7.28276 10.7643 7.30193 10.778 7.31789 10.7951C7.33385 10.8122 7.34628 10.8322 7.35449 10.8541C7.3627 10.876 7.36651 10.8993 7.36572 10.9227C7.36493 10.946 7.35954 10.969 7.34987 10.9903C7.3402 11.0116 7.32643 11.0307 7.30935 11.0467C7.29227 11.0627 7.27221 11.0751 7.25032 11.0833L3.79199 14.5833C3.70866 14.6666 3.58366 14.6666 3.54199 14.5833L0.0419912 11.125C-0.0830088 11 0.0419912 10.7916 0.208658 10.7916H3.00032V10.625C3.33168 8.59826 4.22167 6.70412 5.57029 5.1554C6.91891 3.60667 8.67272 2.46474 10.6346 1.85793C12.5965 1.25111 14.6888 1.20345 16.6763 1.72031C18.6638 2.23717 20.4678 3.29807 21.8855 4.78378C23.3033 6.26949 24.2786 8.12115 24.7019 10.1307C25.1252 12.1402 24.9797 14.2279 24.2817 16.1593C23.5837 18.0907 22.361 19.7891 20.7508 21.0638C19.1407 22.3384 17.207 23.1388 15.167 23.375Z"
              />
    </g>
    <defs>
        <clipPath id="clip0">
            <rect width="25" height="25" fill="white"/>
        </clipPath>
    </defs>
</svg>