<svg width="25" height="25" fill="rgba(33, 37, 41, 0.85)" viewBox="0 0 33 33" xmlns="http://www.w3.org/2000/svg">
    <g>
        <g clip-path="url(#clip0)">
            <path d="M25.0417 15.4167C24.8786 15.4144 24.7197 15.3643 24.5848 15.2725C24.4499 15.1808 24.3449 15.0515 24.2828 14.9007C24.2207 14.7499 24.2042 14.5841 24.2354 14.424C24.2666 14.2639 24.3441 14.1165 24.4583 14L26.1667 12.2917H19.8333C19.6123 12.2917 19.4004 12.2039 19.2441 12.0476C19.0878 11.8913 19 11.6793 19 11.4583C19 11.2373 19.0878 11.0253 19.2441 10.8691C19.4004 10.7128 19.6123 10.625 19.8333 10.625H26.1667L24.4583 8.91666C24.3628 8.84502 24.2838 8.7537 24.2267 8.64887C24.1695 8.54404 24.1356 8.42816 24.1271 8.30906C24.1186 8.18997 24.1359 8.07045 24.1776 7.95859C24.2194 7.84674 24.2847 7.74516 24.3691 7.66073C24.4535 7.57631 24.5551 7.51101 24.6669 7.46926C24.7788 7.42752 24.8983 7.41029 25.0174 7.41875C25.1365 7.42722 25.2524 7.46117 25.3572 7.51832C25.462 7.57547 25.5534 7.65448 25.625 7.74999L28.75 10.875C28.8196 10.9481 28.8759 11.0327 28.9167 11.125C28.9796 11.2248 29.013 11.3403 29.013 11.4583C29.013 11.5763 28.9796 11.6919 28.9167 11.7917C28.8759 11.884 28.8196 11.9686 28.75 12.0417L25.625 15.1667C25.4711 15.3237 25.2615 15.4135 25.0417 15.4167Z"
                 />
            <path d="M21.6242 8.25C21.8227 8.21001 21.9998 8.09915 22.1225 7.93813C22.2451 7.77711 22.305 7.57694 22.2909 7.375V0.666667C22.2909 0.489856 22.2207 0.320286 22.0956 0.195262C21.9706 0.0702379 21.801 0 21.6242 0L5.08257 0C4.79525 0 4.5197 0.114137 4.31654 0.317301C4.11337 0.520465 3.99924 0.796015 3.99924 1.08333V21.5833C3.99432 21.827 4.07502 22.0647 4.22729 22.2551C4.37955 22.4454 4.59374 22.5763 4.83257 22.625L15.2076 24.9167C15.3627 24.9471 15.5227 24.9432 15.6762 24.9052C15.8297 24.8673 15.9731 24.7961 16.0962 24.6969C16.2193 24.5976 16.3191 24.4726 16.3888 24.3306C16.4584 24.1886 16.4961 24.0331 16.4992 23.875V22.75H21.6242C21.801 22.75 21.9706 22.6798 22.0956 22.5547C22.2207 22.4297 22.2909 22.2601 22.2909 22.0833V15.2917C22.2923 15.1709 22.2674 15.0512 22.2179 14.941C22.1684 14.8308 22.0956 14.7327 22.0044 14.6534C21.9133 14.5741 21.806 14.5156 21.69 14.4819C21.5739 14.4483 21.452 14.4402 21.3326 14.4583C21.1304 14.4975 20.9486 14.6067 20.819 14.7668C20.6894 14.9268 20.6205 15.1275 20.6242 15.3333V21.0833H16.4992V4.16667C16.4986 3.94218 16.4308 3.72303 16.3045 3.5374C16.1783 3.35177 15.9994 3.20814 15.7909 3.125L11.7076 1.66667H20.6242V7.45833C20.6278 7.57979 20.658 7.699 20.7125 7.80759C20.767 7.91618 20.8447 8.01153 20.9399 8.08695C21.0352 8.16237 21.1458 8.21605 21.264 8.24422C21.3822 8.27238 21.5052 8.27436 21.6242 8.25Z"
                 />
        </g>
    </g>

</svg>