<svg width="25" height="20" viewBox="0 0 30 29" xmlns="http://www.w3.org/2000/svg">
                    <path d="M6.62457 23.2916C6.32698 23.2896 6.04231 23.1697 5.8329 22.9583C5.73381 22.8526 5.65693 22.728 5.60683 22.592C5.55674 22.456 5.53443 22.3114 5.54123 22.1666C5.53855 21.8885 5.64299 21.6199 5.8329 21.4166L25.6246 1.62496C25.834 1.41351 26.1186 1.29365 26.4162 1.29163C26.5573 1.2935 26.6965 1.32401 26.8254 1.38131C26.9544 1.43861 27.0703 1.5215 27.1662 1.62496C27.2697 1.72088 27.3526 1.83682 27.4099 1.96575C27.4672 2.09467 27.4977 2.23389 27.4996 2.37496C27.4975 2.67255 27.3777 2.95721 27.1662 3.16663L7.37457 22.9583C7.28204 23.0659 7.16676 23.1517 7.03706 23.2093C6.90735 23.267 6.76646 23.2951 6.62457 23.2916Z"></path>
                    <path d="M10.1248 2.58332C10.7876 2.57508 11.4377 2.76461 11.9923 3.12769C12.5468 3.49078 12.9804 4.01092 13.2379 4.62168C13.4953 5.23244 13.5648 5.90608 13.4375 6.55654C13.3103 7.207 12.9919 7.80475 12.5233 8.27342C12.0546 8.74209 11.4569 9.0604 10.8064 9.18768C10.1559 9.31497 9.4823 9.24545 8.87154 8.98801C8.26078 8.73057 7.74063 8.2969 7.37755 7.74239C7.01447 7.18789 6.82494 6.53773 6.83318 5.87499C6.83318 5.00198 7.17998 4.16473 7.79728 3.54743C8.41459 2.93012 9.25184 2.58332 10.1248 2.58332ZM10.1248 0.458318C9.04178 0.450082 7.98076 0.764246 7.07678 1.36083C6.17281 1.95742 5.46676 2.80946 5.04847 3.80852C4.63019 4.80758 4.51859 5.9085 4.72787 6.97118C4.93715 8.03386 5.45785 9.01026 6.22371 9.77612C6.98957 10.542 7.96597 11.0627 9.02865 11.272C10.0913 11.4812 11.1922 11.3696 12.1913 10.9514C13.1904 10.5331 14.0424 9.82702 14.639 8.92305C15.2356 8.01907 15.5497 6.95805 15.5415 5.87499C15.5415 4.4384 14.9708 3.06065 13.955 2.04482C12.9392 1.029 11.5614 0.458318 10.1248 0.458318Z"></path>
                    <path d="M22.9168 15.375C23.5796 15.3668 24.2297 15.5563 24.7842 15.9194C25.3387 16.2825 25.7724 16.8026 26.0299 17.4134C26.2873 18.0241 26.3568 18.6978 26.2295 19.3482C26.1023 19.9987 25.7839 20.5964 25.3153 21.0651C24.8466 21.5338 24.2489 21.8521 23.5984 21.9794C22.9479 22.1067 22.2743 22.0371 21.6635 21.7797C21.0528 21.5223 20.5326 21.0886 20.1695 20.5341C19.8065 19.9796 19.6169 19.3294 19.6252 18.6667C19.6252 17.7937 19.972 16.9564 20.5893 16.3391C21.2066 15.7218 22.0438 15.375 22.9168 15.375ZM22.9168 13.25C21.8338 13.2418 20.7728 13.5559 19.8688 14.1525C18.9648 14.7491 18.2587 15.6011 17.8405 16.6002C17.4222 17.5993 17.3106 18.7002 17.5199 19.7629C17.7291 20.8255 18.2498 21.8019 19.0157 22.5678C19.7816 23.3337 20.758 23.8544 21.8206 24.0636C22.8833 24.2729 23.9842 24.1613 24.9833 23.743C25.9824 23.3248 26.8344 22.6187 27.431 21.7147C28.0276 20.8108 28.3417 19.7497 28.3335 18.6667C28.3335 17.2301 27.7628 15.8523 26.747 14.8365C25.7312 13.8207 24.3534 13.25 22.9168 13.25Z"></path>
                </svg>