<svg width="25" height="20" viewBox="0 0 34 30" xmlns="http://www.w3.org/2000/svg">
                    <path fill-rule="evenodd" clip-rule="evenodd" d="M21.1326 5.625L18.75 9.7518L18.75 26.25H29.0625C30.098 26.25 30.9375 27.0895 30.9375 28.125C30.9375 29.1605 30.098 30 29.0625 30H5.625C4.58947 30 3.75 29.1605 3.75 28.125C3.75 27.0895 4.58947 26.25 5.625 26.25H15.9375L15.9375 9.75181L13.5549 5.625H5.625C4.58947 5.625 3.75 4.78553 3.75 3.75C3.75 2.71447 4.58947 1.875 5.625 1.875H15.9375V0.9375H18.75V1.875H29.0625C30.098 1.875 30.9375 2.71447 30.9375 3.75C30.9375 4.78553 30.098 5.625 29.0625 5.625H21.1326Z"></path>
                    <path fill-rule="evenodd" clip-rule="evenodd" d="M6.40146 8.07062L3.68611 18.2044L1.875 17.7192L5.36681 4.68756L6.40135 4.96476L7.4361 4.6875L10.9279 17.7191L9.1168 18.2044L6.40146 8.07062Z"></path>
                    <path fill-rule="evenodd" clip-rule="evenodd" d="M0.0177608 16.875C0.005992 17.0297 0 17.186 0 17.3438C0 20.7092 2.72826 23.4375 6.09375 23.4375C9.45924 23.4375 12.1875 20.7092 12.1875 17.3438C12.1875 17.186 12.1815 17.0297 12.1697 16.875H0.0177608Z"></path>
                    <path fill-rule="evenodd" clip-rule="evenodd" d="M27.964 8.07062L25.2486 18.2044L23.4375 17.7192L26.9293 4.68756L27.9638 4.96476L28.9986 4.6875L32.4904 17.7191L30.6793 18.2044L27.964 8.07062Z"></path>
                    <path fill-rule="evenodd" clip-rule="evenodd" d="M21.5803 16.875C21.5685 17.0297 21.5625 17.186 21.5625 17.3438C21.5625 20.7092 24.2908 23.4375 27.6562 23.4375C31.0217 23.4375 33.75 20.7092 33.75 17.3438C33.75 17.186 33.744 17.0297 33.7322 16.875H21.5803Z"></path>
                    <circle cx="17.3438" cy="2.34375" r="2.34375" fill="#FBFBFB"></circle>
                </svg>