<svg id="Layer_1" data-name="Layer 1" xmlns="http://www.w3.org/2000/svg" viewBox="0 0 20 20"><defs><style>.cls-1{fill:#f07d00;}</style></defs><title>star new 3</title><path class="cls-1" d="M19.91872,7.54355l-.01349-.04337a1.9995,1.9995,0,0,0-1.72218-1.41379l-4.53532-.42982L11.84652,1.25473A1.984,1.984,0,0,0,9.27.1397a1.99451,1.99451,0,0,0-1.11552,1.115L6.35326,5.65657l-4.53917.42982A2.00815,2.00815,0,0,0,.09624,7.49922,2.08406,2.08406,0,0,0,.66629,9.64111L4.128,12.80744l-1.02445,4.7059A2.06911,2.06911,0,0,0,3.864,19.594a1.99129,1.99129,0,0,0,2.23633.105l3.90022-2.43535,3.89684,2.43246a1.96689,1.96689,0,0,0,2.23682-.09927,2.07648,2.07648,0,0,0,.76231-2.08551l-1.02348-4.704L19.3347,9.64063A2.07274,2.07274,0,0,0,19.91872,7.54355Zm-5.09427,10.257-4.82395-3.0078-4.81,2.99431,1.24369-5.712-4.279-3.91419L7.81379,7.625,10.001,2.28207l2.15779,5.274.02795.06891,5.659.53583-4.22595,3.867-.053.04722Z"/></svg>