<svg id="Layer_1" data-name="Layer 1" xmlns="http://www.w3.org/2000/svg" viewBox="0 0 20 20"><defs><style>.cls-1{fill:#f07d00;}</style></defs><title>star new 2</title><path class="cls-1" d="M19.93018,7.54487l-.0119-.04166a1.90955,1.90955,0,0,0-1.63775-1.34462l-4.67119-.44242-1.854-4.53182a1.887,1.887,0,0,0-3.50959.00148l-1.854,4.53034-4.67417.44242A1.91481,1.91481,0,0,0,.08331,7.50321a1.97834,1.97834,0,0,0,.5431,2.041l3.56068,3.25714L3.13362,17.64017a1.96431,1.96431,0,0,0,.72414,1.982,1.87862,1.87862,0,0,0,2.12431.09919l4.01847-2.50869,4.01551,2.50671a1.85712,1.85712,0,0,0,2.12381-.09424,1.97035,1.97035,0,0,0,.72612-1.98692L15.8135,12.80133l3.56018-3.25714A1.98469,1.98469,0,0,0,19.93018,7.54487ZM9.98219,1.8946l.0377.00149,2.283,5.58033L18.102,8.025a.05469.05469,0,0,1,.02579.03373.10426.10426,0,0,1-.01885.10168l-4.35674,3.98624L15.03381,18.034a.09913.09913,0,0,1-.02282.09424L10.00054,15.0045,4.98811,18.12425a.09277.09277,0,0,1-.02133-.08729L6.2494,12.14663,1.89167,8.16039a.10571.10571,0,0,1-.01786-.09672.0835.0835,0,0,1,.02282-.03819l5.80105-.54906Z"/></svg>