<svg id="Layer_1" data-name="Layer 1" xmlns="http://www.w3.org/2000/svg" viewBox="0 0 20 20"><defs><style>.cls-1{fill:#f07d00;}</style></defs><title>star new</title><path class="cls-1" d="M19.43945,7.672l-.01074-.0376A1.71191,1.71191,0,0,0,17.96,6.42737L13.3877,5.99426,11.57422,1.56165a1.69191,1.69191,0,0,0-3.14795.001L6.61279,5.99426,2.0376,6.42737A1.71774,1.71774,0,0,0,.57178,7.6344a1.77882,1.77882,0,0,0,.48779,1.83594l3.481,3.18408-1.0293,4.72851a1.7661,1.7661,0,0,0,.65088,1.78223,1.68138,1.68138,0,0,0,1.90283.08887L10,16.798l3.93262,2.45411a1.66332,1.66332,0,0,0,1.90234-.084A1.76921,1.76921,0,0,0,16.4873,17.381L15.459,12.65442l3.48047-3.18408A1.778,1.778,0,0,0,19.43945,7.672ZM6.251,12.11145,2.10938,8.32239a.22342.22342,0,0,1-.05274-.22266.16631.16631,0,0,1,.1294-.124L7.6958,7.45422,9.86621,2.152a.14972.14972,0,0,1,.26807,0l2.16943,5.30224,5.50977.52149a.16283.16283,0,0,1,.12988.1206.22284.22284,0,0,1-.05273.22608L13.749,12.11145l1.21875,5.59961a.21469.21469,0,0,1-.07031.21582.11445.11445,0,0,1-.13965.00586L10,14.96594,5.23877,17.93469A.11382.11382,0,0,1,5.1001,17.924a.2104.2104,0,0,1-.06836-.21191Z"/></svg>