<svg width="14" height="8" viewBox="0 0 14 8" fill="none" xmlns="http://www.w3.org/2000/svg">
<path fill-rule="evenodd" clip-rule="evenodd" d="M13.4349 7.70715C13.8255 7.31662 13.8255 6.68346 13.4349 6.29294L7.78592 0.643913C7.78334 0.641283 7.78075 0.638663 7.77814 0.636054C7.48523 0.343145 7.05583 0.269933 6.69468 0.416411C6.64142 0.438008 6.58965 0.464382 6.54002 0.495533C6.47746 0.534794 6.41831 0.581644 6.36387 0.636081C6.36233 0.637626 6.36079 0.639173 6.35926 0.640725L0.707076 6.29291C0.316552 6.68343 0.316551 7.3166 0.707076 7.70712C1.0976 8.09765 1.73077 8.09765 2.12129 7.70712L7.07099 2.75742L12.0207 7.70715C12.4113 8.09767 13.0444 8.09767 13.4349 7.70715Z" fill="#828282"/>
</svg>
