<svg width="20" height="20" viewBox="0 0 20 20" fill="none" xmlns="http://www.w3.org/2000/svg">
<path d="M17.9581 8.04549C17.8528 7.70742 17.5654 7.46806 17.2268 7.43609L12.6081 6.99853L10.7827 2.53909C10.648 2.21146 10.3413 2 10 2C9.6587 2 9.35193 2.21146 9.21802 2.53909L7.39267 6.99853L2.77321 7.43609C2.43459 7.4687 2.14784 7.70805 2.04188 8.04549C1.93653 8.38357 2.03382 8.75438 2.28993 8.98877L5.78132 12.1834L4.75188 16.9147C4.67656 17.2626 4.80596 17.6223 5.08258 17.831C5.23126 17.9437 5.40595 18 5.58124 18C5.73188 18 5.88264 17.9582 6.01728 17.8741L10 15.3891L13.982 17.8741C14.2741 18.0563 14.6414 18.0396 14.9174 17.831C15.1941 17.6223 15.3235 17.2626 15.2481 16.9147L14.2187 12.1834L17.7101 8.98877C17.9661 8.75438 18.0635 8.38433 17.9581 8.04549Z" stroke="#F07D00"/>
</svg>
