<svg width="30" height="30" viewBox="0 0 30 30" fill="none" xmlns="http://www.w3.org/2000/svg">
<circle cx="15" cy="15" r="15" fill="#828282"/>
<path d="M21.3636 22.9545H8.63635V21.3636C8.63635 20.3088 9.05539 19.2972 9.80127 18.5513C10.5472 17.8054 11.5588 17.3864 12.6136 17.3864H17.3864C18.4412 17.3864 19.4528 17.8054 20.1987 18.5513C20.9446 19.2972 21.3636 20.3088 21.3636 21.3636V22.9545ZM15 15.7955C14.3732 15.7955 13.7526 15.672 13.1735 15.4322C12.5945 15.1923 12.0683 14.8407 11.6252 14.3976C11.182 13.9544 10.8304 13.4282 10.5906 12.8492C10.3507 12.2701 10.2273 11.6495 10.2273 11.0227C10.2273 10.396 10.3507 9.77534 10.5906 9.19628C10.8304 8.61723 11.182 8.09109 11.6252 7.6479C12.0683 7.20471 12.5945 6.85315 13.1735 6.6133C13.7526 6.37345 14.3732 6.25 15 6.25C16.2658 6.25 17.4798 6.75284 18.3748 7.6479C19.2699 8.54296 19.7727 9.75692 19.7727 11.0227C19.7727 12.2885 19.2699 13.5025 18.3748 14.3976C17.4798 15.2926 16.2658 15.7955 15 15.7955Z" fill="white"/>
</svg>
