<svg width="26" height="22" viewBox="0 0 26 22" fill="none" xmlns="http://www.w3.org/2000/svg">
<path d="M8.1155 14.6668H21.3645C21.6926 14.6668 21.9804 14.4498 22.0692 14.1347L25.0027 3.86793C25.0657 3.64659 25.0225 3.40883 24.8837 3.22493C24.7447 3.0416 24.5285 2.93332 24.2978 2.93332H6.42254L5.89833 0.574441C5.82385 0.238523 5.52594 0 5.18219 0H0.733329C0.328088 0 0 0.328088 0 0.733329C0 1.13876 0.328088 1.46666 0.733329 1.46666H4.59362L7.24181 13.3833C6.46265 13.722 5.91552 14.4976 5.91552 15.4001C5.91552 16.6131 6.90245 17.6001 8.1155 17.6001H21.3645C21.7699 17.6001 22.0978 17.2722 22.0978 16.8668C22.0978 16.4615 21.7699 16.1334 21.3645 16.1334H8.1155C7.7116 16.1334 7.38217 15.8048 7.38217 15.4001C7.38217 14.9954 7.7116 14.6668 8.1155 14.6668Z" fill="white"/>
<path d="M7.3822 19.8001C7.3822 21.0133 8.36914 22.0001 9.58238 22.0001C10.7954 22.0001 11.7824 21.0133 11.7824 19.8001C11.7824 18.587 10.7954 17.6001 9.58238 17.6001C8.36914 17.6001 7.3822 18.587 7.3822 19.8001Z" fill="white"/>
<path d="M17.6979 19.8001C17.6979 21.0133 18.6848 22.0001 19.8979 22.0001C21.1111 22.0001 22.0978 21.0133 22.0978 19.8001C22.0978 18.587 21.1111 17.6001 19.8979 17.6001C18.6848 17.6001 17.6979 18.587 17.6979 19.8001Z" fill="white"/>
</svg>
