<svg width="13" height="13" viewBox="0 0 13 13" fill="none" xmlns="http://www.w3.org/2000/svg">
<path d="M11.8574 1.54883H1.14258C0.966701 1.54883 0.802043 1.59207 0.653076 1.66334L6.47461 7.48488L7.77941 6.23091C7.77941 6.23091 7.77951 6.23078 7.77954 6.23073C7.77956 6.23068 7.77967 6.23063 7.77967 6.23063L12.3471 1.66344C12.1981 1.59212 12.0334 1.54883 11.8574 1.54883Z" fill="#333333"/>
<path d="M12.8856 2.20203L8.58743 6.5L12.8855 10.798C12.9568 10.6491 13 10.4844 13 10.3085V2.69135C13 2.51558 12.9569 2.35094 12.8856 2.20203Z" fill="#333333"/>
<path d="M0.114512 2.20197C0.0432402 2.35093 0 2.51559 0 2.69147V10.3087C0 10.4844 0.0431895 10.6491 0.11441 10.798L4.41261 6.50006L0.114512 2.20197Z" fill="#333333"/>
<path d="M8.04888 7.03869L6.7439 8.2928C6.66951 8.3672 6.57206 8.4044 6.47463 8.4044C6.37721 8.4044 6.27973 8.3672 6.20537 8.2928L4.95117 7.03864L0.652893 11.3366C0.801885 11.408 0.966645 11.4512 1.14258 11.4512H11.8574C12.0333 11.4512 12.198 11.408 12.3469 11.3367L8.04888 7.03869Z" fill="#333333"/>
</svg>
