<svg width="22" height="21" viewBox="0 0 22 21" fill="none" xmlns="http://www.w3.org/2000/svg">
<path d="M16.2291 20.4427C16.6102 20.6704 17.0893 20.6495 17.4493 20.3887C17.8101 20.1279 17.9789 19.6782 17.8807 19.2434L16.5379 13.3293L16.2291 20.4427ZM20.4645 8.46593C20.4787 8.51009 20.4654 8.55521 20.4327 8.58408L16.7421 19.5843L11.5483 16.4782L11.0351 16.1713L10.5219 16.4782L5.32688 19.5844L5.3266 19.5846C5.30897 19.5951 5.29027 19.6 5.2713 19.6C5.24843 19.6 5.22743 19.5933 5.20867 19.5797L5.20668 19.5783C5.1724 19.5535 5.15449 19.5105 5.16483 19.4641C5.16486 19.464 5.16489 19.4639 5.16491 19.4637L6.50746 13.5507L6.6393 12.97L6.19157 12.5774L1.63752 8.58414C1.60497 8.55559 1.59174 8.51013 1.60525 8.46717C1.62003 8.42344 1.65743 8.395 1.70008 8.39092C1.7002 8.39091 1.70032 8.3909 1.70044 8.39089L7.7245 7.84407L8.31918 7.79009L8.55373 7.24096L10.9347 1.66666L10.9349 1.66619C10.9524 1.62522 10.9905 1.60001 11.0351 1.60001C11.0789 1.60001 11.1182 1.6247 11.1369 1.66781C11.137 1.66798 11.1371 1.66814 11.1371 1.6683L13.5174 7.24096L13.7519 7.79008L14.3466 7.84407L20.3712 8.39102L20.3715 8.39105C20.4139 8.39489 20.4506 8.42324 20.4645 8.46593ZM20.4325 8.5843L15.8786 12.5774L15.4309 12.97L15.5627 13.5507L16.9053 19.4637C16.9158 19.5103 16.8979 19.5534 16.8635 19.5783L16.8626 19.5789C16.8268 19.6049 16.7803 19.6069 16.7424 19.5845L20.4325 8.5843Z" stroke="#F37C00" stroke-width="2"/>
</svg>
