<svg width="22" height="22" viewBox="0 0 22 22" fill="none" xmlns="http://www.w3.org/2000/svg">
<path fill-rule="evenodd" clip-rule="evenodd" d="M3 12.4348V19H9.56522V12.4348H3ZM0 11.4348V10.5652V1C0 0.447716 0.447715 0 1 0H10.5652H11.4348H21C21.5523 0 22 0.447715 22 1V10.5652V11.4348V21C22 21.5523 21.5523 22 21 22H11.4348H10.5652H1C0.447716 22 0 21.5523 0 21V11.4348ZM19 9.56522V3H12.4348V9.56522H19ZM12.4348 12.4348H19V19H12.4348V12.4348ZM9.56522 9.56522V3H3V9.56522H9.56522Z" fill="#828282"/>
</svg>
