<svg width="24" height="21" viewBox="0 0 24 21" fill="none" xmlns="http://www.w3.org/2000/svg">
<path fill-rule="evenodd" clip-rule="evenodd" d="M0.811798 11.85C0.803952 11.9532 0.799957 12.0574 0.799957 12.1625C0.799957 14.4062 2.6188 16.225 4.86246 16.225C7.10611 16.225 8.92496 14.4062 8.92496 12.1625C8.92496 12.0574 8.92096 11.9532 8.91312 11.85H0.811798Z" fill="#F37C00"/>
<path fill-rule="evenodd" clip-rule="evenodd" d="M15.1868 11.85C15.179 11.9532 15.175 12.0574 15.175 12.1625C15.175 14.4062 16.9938 16.225 19.2375 16.225C21.4811 16.225 23.3 14.4062 23.3 12.1625C23.3 12.0574 23.296 11.9532 23.2881 11.85H15.1868Z" fill="#F37C00"/>
<path fill-rule="evenodd" clip-rule="evenodd" d="M10.8312 1.85002C10.976 1.13682 11.6065 0.600021 12.3625 0.600021C13.1184 0.600021 13.7489 1.13682 13.8937 1.85002H20.1749C20.8653 1.85002 21.4249 2.40967 21.4249 3.10002C21.4249 3.74876 20.9307 4.28207 20.2982 4.34401L22.4602 12.4126L21.2528 12.7362L19.4426 5.98039L17.6324 12.7363L16.425 12.4128L18.5854 4.35002H14.8883L13.2999 7.10125L13.2999 18.1H20.1749C20.8653 18.1 21.4249 18.6597 21.4249 19.35C21.4249 20.0404 20.8653 20.6 20.1749 20.6H4.54991C3.85955 20.6 3.29991 20.0404 3.29991 19.35C3.29991 18.6597 3.85955 18.1 4.54991 18.1H11.4249L11.4249 7.10125L9.83649 4.35002H5.9248L8.08518 12.4127L6.87777 12.7362L5.06758 5.98047L3.25736 12.7363L2.04996 12.4128L4.222 4.30657C3.6907 4.16253 3.2999 3.67691 3.2999 3.10002C3.2999 2.40967 3.85954 1.85002 4.5499 1.85002H10.8312Z" fill="#F37C00"/>
</svg>
