<svg width="16" height="20" viewBox="0 0 16 20" fill="none" xmlns="http://www.w3.org/2000/svg">
<path d="M10.209 2.00001H8.52112C7.91447 1.9985 7.32125 2.17853 6.81775 2.51694C6.31426 2.85535 5.92353 3.33666 5.69582 3.89896L5.46255 4.4709H0.666626V19.1868H14.6666V6.45786C14.6653 5.27601 14.1953 4.14293 13.3596 3.30721C12.5239 2.4715 11.3908 2.00138 10.209 2.00001ZM1.10731 18.7461V4.91159H5.28279L3.56039 9.13447C3.30849 9.77988 3.17947 10.4667 3.17996 11.1595V18.7461H1.10731ZM14.2259 18.7461H3.62064V11.1595C3.62009 10.5226 3.73846 9.89124 3.96967 9.29779L6.10381 4.0655C6.29862 3.58439 6.63292 3.17257 7.06371 2.88301C7.4945 2.59345 8.00207 2.43941 8.52112 2.4407H10.209C11.274 2.44192 12.2951 2.86555 13.0481 3.61866C13.8012 4.37177 14.2248 5.39284 14.2259 6.45786V18.7461Z" fill="black" stroke="black" stroke-width="0.8"/>
<path d="M3.98361 0.666687H0.666626V2.71323H3.98361V0.666687ZM3.54292 2.27255H1.10731V1.10737H3.54292V2.27255Z" fill="black" stroke="black" stroke-width="0.8"/>
<path d="M8.99994 9.33337L8.84638 9.53293C8.75732 9.64854 6.66663 12.3791 6.66663 13.6306C6.66623 13.9417 6.72629 14.2497 6.84338 14.5371C6.96046 14.8246 7.13227 15.0858 7.34898 15.3059C7.56569 15.5259 7.82305 15.7005 8.10634 15.8196C8.38962 15.9387 8.69329 16 8.99996 16C9.30663 16 9.61029 15.9387 9.89358 15.8196C10.1769 15.7005 10.4342 15.5259 10.6509 15.3059C10.8677 15.0858 11.0395 14.8246 11.1565 14.5371C11.2736 14.2497 11.3337 13.9417 11.3333 13.6306C11.3333 12.3791 9.2426 9.64854 9.15354 9.53293L8.99994 9.33337ZM8.99994 15.6017C8.48466 15.6011 7.99066 15.3932 7.6263 15.0237C7.26194 14.6542 7.05697 14.1532 7.05636 13.6306C7.05636 12.777 8.34168 10.8675 8.99994 9.97972C9.65822 10.8675 10.9435 12.777 10.9435 13.6306C10.9429 14.1532 10.738 14.6542 10.3736 15.0237C10.0092 15.3932 9.51523 15.6011 8.99994 15.6017Z" fill="black" stroke="black" stroke-width="0.8"/>
<path d="M10.1028 4H9.90064C9.75021 4.00018 9.606 4.06002 9.49963 4.16638C9.39327 4.27275 9.33343 4.41696 9.33325 4.56738V5.9751C9.33365 6.33517 9.47685 6.68039 9.73145 6.93502C9.98605 7.18965 10.3312 7.3329 10.6913 7.33333H12.0992C12.2496 7.33315 12.3938 7.27332 12.5002 7.16695C12.6066 7.06059 12.6664 6.91637 12.6666 6.76595V6.5638C12.6658 5.88407 12.3955 5.23239 11.9148 4.75175C11.4342 4.27111 10.7825 4.00075 10.1028 4ZM12.3333 6.76595C12.3332 6.828 12.3085 6.8875 12.2646 6.93138C12.2208 6.97525 12.1613 6.99993 12.0992 7H10.6913C10.4196 6.99968 10.1591 6.89159 9.96702 6.69945C9.77491 6.50731 9.66686 6.2468 9.66659 5.9751V4.56738C9.66665 4.50533 9.69133 4.44584 9.73521 4.40196C9.77909 4.35808 9.83858 4.3334 9.90064 4.33333H10.1028C10.6941 4.33403 11.2611 4.56924 11.6792 4.98739C12.0973 5.40553 12.3326 5.97246 12.3333 6.5638V6.76595Z" fill="black" stroke="black" stroke-width="0.8"/>
</svg>
