<svg width="45" height="45" viewBox="0 0 45 45" fill="none" xmlns="http://www.w3.org/2000/svg">
<path fill-rule="evenodd" clip-rule="evenodd" d="M42.3113 19.0923C42.3583 19.1288 42.4047 19.1647 42.45 19.2C43.65 20.025 45 21.075 45 22.5C45 23.8387 43.3452 25.1112 42.5852 25.6957C42.5362 25.7334 42.4909 25.7682 42.45 25.8C42.3832 25.852 42.3149 25.9047 42.2459 25.9579C41.6182 26.4424 40.9352 26.9696 40.8 27.375C40.6638 27.7837 40.8368 28.1924 41.3192 29.3314C41.368 29.4466 41.4199 29.5692 41.475 29.7C41.507 29.7761 41.5393 29.8522 41.5715 29.9282C42.143 31.2765 42.71 32.6141 42 33.75C41.25 34.95 39.675 35.175 38.175 35.325C37.4004 35.3317 36.6358 35.4982 35.9291 35.8139C35.8885 35.8579 35.8477 35.9017 35.8067 35.9453C35.4957 36.6475 35.3316 37.4063 35.325 38.175C35.175 39.675 34.8 41.4 33.75 42C32.7 42.6 31.125 42.075 29.7 41.475C29.1936 41.1886 28.6519 40.9716 28.0893 40.8291C27.6603 40.967 27.2243 41.0895 26.7821 41.196C26.5108 41.4585 26.2113 41.8517 25.8 42.45C24.975 43.65 23.925 45 22.5 45C21.1613 45 19.8888 43.3452 19.3043 42.5852C19.2666 42.5362 19.2318 42.4909 19.2 42.45C19.1647 42.4047 19.1288 42.3583 19.0923 42.3113C18.7926 41.9247 18.4563 41.491 18.1593 41.1868C17.7636 41.0907 17.3729 40.9817 16.9878 40.8603C16.3934 40.9569 15.8205 41.1647 15.3 41.475C15.2239 41.507 15.1478 41.5393 15.0718 41.5715C13.7235 42.143 12.3859 42.71 11.25 42C10.05 41.25 9.825 39.675 9.675 38.175C9.66852 37.4213 9.51064 36.6771 9.21131 35.9865C9.15236 35.9242 9.09385 35.8615 9.03577 35.7984C8.33888 35.4928 7.5868 35.3315 6.825 35.325C5.325 35.175 3.675 34.95 3 33.75C2.325 32.55 3.15 30.525 3.525 29.7C3.9 28.875 4.275 27.75 4.2 27.375C4.125 27 3.75 26.625 2.55 25.8C1.35 24.975 0 23.925 0 22.5C0 21.1613 1.65474 19.8888 2.41482 19.3043C2.46383 19.2666 2.50912 19.2318 2.55 19.2C2.61684 19.148 2.68514 19.0953 2.75412 19.0421C3.38176 18.5577 4.06485 18.0304 4.2 17.625C4.33623 17.2163 4.16315 16.8076 3.68077 15.6686C3.63201 15.5534 3.58008 15.4308 3.525 15.3C3.49296 15.2239 3.46071 15.1478 3.42848 15.0718C2.85698 13.7235 2.29005 12.3859 3 11.25C3.75 10.05 5.325 9.825 6.825 9.675C7.6286 9.66809 8.4214 9.48907 9.15 9.15C9.48907 8.4214 9.66809 7.6286 9.675 6.825C9.825 5.325 10.2 3.6 11.25 3C12.3 2.4 13.875 2.925 15.3 3.525C15.9518 3.89365 16.6622 4.14735 17.4 4.275C18 4.125 18.375 3.75 19.2 2.55C20.025 1.35 21.075 0 22.5 0C23.8387 0 25.1112 1.65475 25.6957 2.41482C25.7334 2.46383 25.7682 2.50912 25.8 2.55C25.8353 2.59533 25.8712 2.64168 25.9077 2.68872C26.4143 3.34216 27.0252 4.13004 27.375 4.2C28.189 4.1418 28.9814 3.91175 29.7 3.525C29.7761 3.49296 29.8522 3.46071 29.9282 3.42848C31.2765 2.85698 32.6141 2.29005 33.75 3C34.95 3.75 35.175 5.325 35.325 6.825C35.3319 7.6286 35.5109 8.4214 35.85 9.15C36.5786 9.48907 37.3714 9.66809 38.175 9.675C39.675 9.825 41.325 10.05 42 11.25C42.675 12.45 41.85 14.475 41.475 15.3C41.1 16.125 40.725 17.25 40.8 17.625C40.87 17.9748 41.6578 18.5857 42.3113 19.0923Z" fill="#00CD52"/>
<path d="M17.6606 27H11.6987V26.0259L14.7383 21.9976C15.1973 21.3774 15.5146 20.8696 15.6904 20.4741C15.8711 20.0737 15.9614 19.6514 15.9614 19.207C15.9614 18.6406 15.8296 18.1816 15.5659 17.8301C15.3022 17.4785 14.9556 17.3027 14.5259 17.3027C13.9839 17.3027 13.564 17.4907 13.2661 17.8667C12.9731 18.2378 12.8267 18.7749 12.8267 19.478H11.5303C11.5303 18.4966 11.7988 17.7031 12.3359 17.0977C12.873 16.4922 13.603 16.1895 14.5259 16.1895C15.3755 16.1895 16.0444 16.4507 16.5327 16.9731C17.021 17.4907 17.2651 18.1816 17.2651 19.0459C17.2651 20.1006 16.7158 21.3481 15.6172 22.7886L13.2441 25.894H17.6606V27ZM24.8091 22.4517C24.8091 24.0239 24.5796 25.2007 24.1206 25.9819C23.6616 26.7583 22.9414 27.1465 21.96 27.1465C21.0078 27.1465 20.2974 26.7729 19.8286 26.0259C19.3599 25.2788 19.1157 24.1558 19.0962 22.6567V20.8257C19.0962 19.2681 19.3257 18.106 19.7847 17.3394C20.2485 16.5728 20.9688 16.1895 21.9453 16.1895C22.9072 16.1895 23.6177 16.5532 24.0767 17.2808C24.5405 18.0083 24.7847 19.1094 24.8091 20.584V22.4517ZM23.5127 20.5986C23.5127 19.4707 23.3882 18.6406 23.1392 18.1084C22.8901 17.5713 22.4922 17.3027 21.9453 17.3027C21.4131 17.3027 21.0225 17.5664 20.7734 18.0938C20.5244 18.6162 20.395 19.4072 20.3853 20.4668V22.6641C20.3853 23.7871 20.5146 24.6318 20.7734 25.1982C21.0322 25.7598 21.4277 26.0405 21.96 26.0405C22.4873 26.0405 22.8755 25.7744 23.1245 25.2422C23.3735 24.71 23.5029 23.897 23.5127 22.8032V20.5986ZM26.4497 18.3867C26.4497 17.752 26.6206 17.2271 26.9624 16.812C27.3091 16.3921 27.7583 16.1821 28.3101 16.1821C28.8569 16.1821 29.3037 16.3872 29.6504 16.7974C30.002 17.2075 30.1777 17.7471 30.1777 18.416V18.9507C30.1777 19.5903 30.0044 20.1152 29.6577 20.5254C29.3159 20.9355 28.8716 21.1406 28.3247 21.1406C27.7778 21.1406 27.3286 20.9355 26.9771 20.5254C26.6255 20.1152 26.4497 19.5757 26.4497 18.9067V18.3867ZM27.3945 18.9507C27.3945 19.3413 27.48 19.6587 27.6509 19.9028C27.8218 20.1421 28.0464 20.2617 28.3247 20.2617C28.5933 20.2617 28.8105 20.1445 28.9766 19.9102C29.1475 19.6709 29.2329 19.3413 29.2329 18.9214V18.3867C29.2329 17.9912 29.1475 17.6738 28.9766 17.4346C28.8057 17.1904 28.5835 17.0684 28.3101 17.0684C28.0317 17.0684 27.8096 17.1904 27.6436 17.4346C27.4775 17.6787 27.3945 18.0034 27.3945 18.4087V18.9507ZM30.7563 24.3853C30.7563 23.7456 30.9297 23.2207 31.2764 22.8105C31.623 22.3955 32.0698 22.188 32.6167 22.188C33.1636 22.188 33.6128 22.3931 33.9644 22.8032C34.3159 23.2134 34.4917 23.7578 34.4917 24.4365V24.9565C34.4917 25.6011 34.3159 26.1284 33.9644 26.5386C33.6128 26.9487 33.1685 27.1538 32.6313 27.1538C32.0845 27.1538 31.6353 26.9487 31.2837 26.5386C30.9321 26.1284 30.7563 25.5889 30.7563 24.9199V24.3853ZM31.7012 24.9565C31.7012 25.3521 31.7866 25.6719 31.9575 25.916C32.1284 26.1553 32.353 26.2749 32.6313 26.2749C32.9048 26.2749 33.1245 26.1528 33.2905 25.9087C33.4565 25.6646 33.5396 25.3398 33.5396 24.9346V24.3853C33.5396 23.9897 33.4541 23.6724 33.2832 23.4331C33.1123 23.1938 32.8901 23.0742 32.6167 23.0742C32.3481 23.0742 32.1284 23.1938 31.9575 23.4331C31.7866 23.6675 31.7012 23.9922 31.7012 24.4072V24.9565ZM28.5884 26.1943L27.8779 25.7109L32.2505 17.376L32.9683 17.8594L28.5884 26.1943Z" fill="white"/>
</svg>
