<svg width="45" height="45" viewBox="0 0 45 45" fill="none" xmlns="http://www.w3.org/2000/svg">
<path fill-rule="evenodd" clip-rule="evenodd" d="M42.3113 19.0924C42.3583 19.1288 42.4047 19.1648 42.45 19.2C43.65 20.025 45 21.075 45 22.5C45 23.8387 43.3453 25.1112 42.5852 25.6957C42.5362 25.7334 42.4909 25.7682 42.45 25.8C42.3832 25.852 42.3149 25.9047 42.2459 25.9579C41.6182 26.4423 40.9351 26.9696 40.8 27.375C40.6638 27.7837 40.8368 28.1924 41.3192 29.3314C41.368 29.4466 41.4199 29.5692 41.475 29.7C41.507 29.7761 41.5393 29.8522 41.5715 29.9282C42.143 31.2765 42.71 32.6141 42 33.75C41.25 34.95 39.675 35.175 38.175 35.325C37.3714 35.3319 36.5786 35.5109 35.85 35.85C35.5109 36.5786 35.3319 37.3714 35.325 38.175C35.175 39.675 34.8 41.4 33.75 42C32.7 42.6 31.125 42.075 29.7 41.475C29.0482 41.1064 28.3378 40.8526 27.6 40.725C27 40.875 26.625 41.25 25.8 42.45C24.975 43.65 23.925 45 22.5 45C21.1613 45 19.8888 43.3452 19.3043 42.5852C19.2666 42.5362 19.2318 42.4909 19.2 42.45C19.1647 42.4047 19.1288 42.3583 19.0923 42.3113C18.5857 41.6578 17.9748 40.87 17.625 40.8C16.8051 40.8227 16.0046 41.055 15.3 41.475C15.2239 41.507 15.1478 41.5393 15.0718 41.5715C13.7235 42.143 12.3859 42.71 11.25 42C10.05 41.25 9.825 39.675 9.675 38.175C9.66809 37.3714 9.48907 36.5786 9.15 35.85C8.4214 35.5109 7.6286 35.3319 6.825 35.325C5.325 35.175 3.675 34.95 3 33.75C2.325 32.55 3.15 30.525 3.525 29.7C3.9 28.875 4.275 27.75 4.2 27.375C4.125 27 3.75 26.625 2.55 25.8C1.35 24.975 0 23.925 0 22.5C0 21.1613 1.65474 19.8888 2.41482 19.3043C2.46383 19.2666 2.50912 19.2318 2.55 19.2C2.61684 19.148 2.68514 19.0953 2.75412 19.0421C3.38176 18.5577 4.06485 18.0304 4.2 17.625C4.33623 17.2163 4.16315 16.8076 3.68077 15.6686C3.63201 15.5534 3.58008 15.4308 3.525 15.3C3.49296 15.2239 3.46071 15.1478 3.42848 15.0718C2.85698 13.7235 2.29005 12.3859 3 11.25C3.75 10.05 5.325 9.825 6.825 9.675C7.6286 9.66809 8.4214 9.48907 9.15 9.15C9.48907 8.4214 9.66809 7.6286 9.675 6.825C9.825 5.325 10.2 3.6 11.25 3C12.3 2.4 13.875 2.925 15.3 3.525C15.9518 3.89365 16.6621 4.14735 17.4 4.275C18 4.125 18.375 3.75 19.2 2.55C20.025 1.35 21.075 0 22.5 0C23.8387 0 25.1112 1.65475 25.6957 2.41482C25.7334 2.46383 25.7682 2.50912 25.8 2.55C25.8353 2.59533 25.8712 2.64168 25.9077 2.68872C26.4143 3.34216 27.0252 4.13004 27.375 4.2C28.189 4.1418 28.9814 3.91175 29.7 3.525C29.7761 3.49296 29.8522 3.46071 29.9282 3.42848C31.2765 2.85698 32.6141 2.29005 33.75 3C34.95 3.75 35.175 5.325 35.325 6.825C35.3319 7.6286 35.5109 8.4214 35.85 9.15C36.5786 9.48907 37.3714 9.66809 38.175 9.675C39.675 9.825 41.325 10.05 42 11.25C42.675 12.45 41.85 14.475 41.475 15.3C41.1697 15.9717 40.8643 16.8423 40.8019 17.3451C40.854 17.5289 40.9032 17.7141 40.9494 17.9003C41.2219 18.2477 41.8067 18.7011 42.3113 19.0924Z" fill="#F39108"/>
<path d="M16.0928 29H8.93848L8.93848 27.8311L12.5859 22.9971C13.1367 22.2529 13.5176 21.6436 13.7285 21.1689C13.9453 20.6885 14.0537 20.1816 14.0537 19.6484C14.0537 18.9688 13.8955 18.418 13.5791 17.9961C13.2627 17.5742 12.8467 17.3633 12.3311 17.3633C11.6807 17.3633 11.1768 17.5889 10.8193 18.04C10.4678 18.4854 10.292 19.1299 10.292 19.9736H8.73633C8.73633 18.7959 9.05859 17.8438 9.70312 17.1172C10.3477 16.3906 11.2236 16.0273 12.3311 16.0273C13.3506 16.0273 14.1533 16.3408 14.7393 16.9678C15.3252 17.5889 15.6182 18.418 15.6182 19.4551C15.6182 20.7207 14.959 22.2178 13.6406 23.9463L10.793 27.6729H16.0928V29ZM24.6709 23.542C24.6709 25.4287 24.3955 26.8408 23.8447 27.7783C23.2939 28.71 22.4297 29.1758 21.252 29.1758C20.1094 29.1758 19.2568 28.7275 18.6943 27.8311C18.1318 26.9346 17.8389 25.5869 17.8154 23.7881V21.5908C17.8154 19.7217 18.0908 18.3271 18.6416 17.4072C19.1982 16.4873 20.0625 16.0273 21.2344 16.0273C22.3887 16.0273 23.2412 16.4639 23.792 17.3369C24.3486 18.21 24.6416 19.5312 24.6709 21.3008V23.542ZM23.1152 21.3184C23.1152 19.9648 22.9658 18.9688 22.667 18.3301C22.3682 17.6855 21.8906 17.3633 21.2344 17.3633C20.5957 17.3633 20.127 17.6797 19.8281 18.3125C19.5293 18.9395 19.374 19.8887 19.3623 21.1602V23.7969C19.3623 25.1445 19.5176 26.1582 19.8281 26.8379C20.1387 27.5117 20.6133 27.8486 21.252 27.8486C21.8848 27.8486 22.3506 27.5293 22.6494 26.8906C22.9482 26.252 23.1035 25.2764 23.1152 23.9639V21.3184ZM26.6396 18.6641C26.6396 17.9023 26.8447 17.2725 27.2549 16.7744C27.6709 16.2705 28.21 16.0186 28.8721 16.0186C29.5283 16.0186 30.0645 16.2646 30.4805 16.7568C30.9023 17.249 31.1133 17.8965 31.1133 18.6992V19.3408C31.1133 20.1084 30.9053 20.7383 30.4893 21.2305C30.0791 21.7227 29.5459 21.9688 28.8896 21.9688C28.2334 21.9688 27.6943 21.7227 27.2725 21.2305C26.8506 20.7383 26.6396 20.0908 26.6396 19.2881V18.6641ZM27.7734 19.3408C27.7734 19.8096 27.876 20.1904 28.0811 20.4834C28.2861 20.7705 28.5557 20.9141 28.8896 20.9141C29.2119 20.9141 29.4727 20.7734 29.6719 20.4922C29.877 20.2051 29.9795 19.8096 29.9795 19.3057V18.6641C29.9795 18.1895 29.877 17.8086 29.6719 17.5215C29.4668 17.2285 29.2002 17.082 28.8721 17.082C28.5381 17.082 28.2715 17.2285 28.0723 17.5215C27.873 17.8145 27.7734 18.2041 27.7734 18.6904V19.3408ZM31.8076 25.8623C31.8076 25.0947 32.0156 24.4648 32.4316 23.9727C32.8477 23.4746 33.3838 23.2256 34.04 23.2256C34.6963 23.2256 35.2354 23.4717 35.6572 23.9639C36.0791 24.4561 36.29 25.1094 36.29 25.9238V26.5479C36.29 27.3213 36.0791 27.9541 35.6572 28.4463C35.2354 28.9385 34.7021 29.1846 34.0576 29.1846C33.4014 29.1846 32.8623 28.9385 32.4404 28.4463C32.0186 27.9541 31.8076 27.3066 31.8076 26.5039V25.8623ZM32.9414 26.5479C32.9414 27.0225 33.0439 27.4062 33.249 27.6992C33.4541 27.9863 33.7236 28.1299 34.0576 28.1299C34.3857 28.1299 34.6494 27.9834 34.8486 27.6904C35.0479 27.3975 35.1475 27.0078 35.1475 26.5215V25.8623C35.1475 25.3877 35.0449 25.0068 34.8398 24.7197C34.6348 24.4326 34.3682 24.2891 34.04 24.2891C33.7178 24.2891 33.4541 24.4326 33.249 24.7197C33.0439 25.001 32.9414 25.3906 32.9414 25.8887V26.5479ZM29.2061 28.0332L28.3535 27.4531L33.6006 17.4512L34.4619 18.0312L29.2061 28.0332Z" fill="white"/>
</svg>
