<svg width="8" height="14" viewBox="0 0 8 14" fill="none" xmlns="http://www.w3.org/2000/svg">
<path fill-rule="evenodd" clip-rule="evenodd" d="M0.363894 13.435C0.754419 13.8255 1.38758 13.8255 1.77811 13.435L7.42704 7.78607C7.4297 7.78347 7.43235 7.78084 7.43499 7.7782C7.7279 7.48529 7.80111 7.05589 7.65463 6.69474C7.63207 6.63909 7.60428 6.58506 7.57128 6.5334C7.5329 6.47331 7.48746 6.41643 7.43496 6.36393C7.43342 6.36239 7.43187 6.36085 7.43032 6.35932L1.77814 0.707137C1.38761 0.316613 0.754447 0.316613 0.363922 0.707137C-0.0266017 1.09766 -0.0266013 1.73083 0.363923 2.12135L5.31363 7.07105L0.363894 12.0208C-0.0266299 12.4113 -0.0266298 13.0445 0.363894 13.435Z" fill="black"/>
</svg>
