<svg width="24" height="24" viewBox="0 0 24 24" fill="none" xmlns="http://www.w3.org/2000/svg">
<path d="M23.3831 0.617014C22.5607 -0.20545 21.2224 -0.205404 20.3999 0.617014L19.6114 1.40549H17.0901C16.151 1.40549 15.2681 1.77116 14.6041 2.43524L9.22721 7.812L6.76 8.63442C5.95366 8.12035 4.85797 8.2036 4.13783 8.92383C3.31532 9.74629 3.31532 11.0846 4.13783 11.9071L4.63498 12.4042L2.19478 14.8444C1.54655 15.4926 1.40963 16.461 1.78313 17.2449L0.205979 18.822C-0.0686598 19.0966 -0.0686598 19.5418 0.205979 19.8164C0.480525 20.091 0.925834 20.091 1.20038 19.8164L2.69198 18.3248L5.67523 21.3081L4.18363 22.7997C3.90904 23.0742 3.90904 23.5195 4.18363 23.7941C4.45817 24.0687 4.90348 24.0687 5.17803 23.7941L6.75517 22.217C7.53859 22.5902 8.50641 22.4546 9.15568 21.8053L11.5958 19.3651L12.093 19.8623C12.9155 20.6848 14.2539 20.6848 15.0763 19.8623C15.7967 19.1419 15.8797 18.0463 15.3657 17.2402L16.1881 14.7729L21.565 9.39614C22.229 8.73201 22.5947 7.84922 22.5947 6.91009V4.38865L23.3831 3.60022C24.2056 2.7778 24.2056 1.43952 23.3831 0.617014ZM8.16123 20.8109C7.88701 21.0851 7.44091 21.085 7.16678 20.8109L3.18918 16.8332C2.91501 16.5591 2.91501 16.113 3.18918 15.8388L5.62938 13.3986L10.6014 18.3706L8.16123 20.8109ZM14.0819 18.8679C13.8071 19.1427 13.3623 19.1427 13.0874 18.8679C12.7421 18.5225 5.44493 11.2253 5.13223 10.9126C4.85741 10.6378 4.85741 10.1931 5.13223 9.91823C5.40706 9.64335 5.8518 9.6434 6.12663 9.91823L14.0819 17.8735C14.3567 18.1484 14.3567 18.593 14.0819 18.8679ZM14.2718 16.0745C13.9934 15.7962 8.20389 10.0066 7.9255 9.72824L9.41705 9.23109L14.7689 14.583L14.2718 16.0745ZM15.5734 13.3986L13.5846 11.4098L15.0161 9.97827C15.8026 10.3529 16.7696 10.2135 17.4165 9.56662C18.2411 8.74209 18.241 7.4078 17.4165 6.58342C16.5941 5.76091 15.2558 5.76091 14.4333 6.58342C13.773 7.24369 13.6522 8.21475 14.0208 8.98481L12.5902 10.4154L10.6013 8.42658C16.0445 2.98353 15.6827 3.3163 15.9611 3.13911L20.8609 8.03888C20.6847 8.31595 21.0208 7.95132 15.5734 13.3986ZM15.4278 7.57782C15.7026 7.30304 16.1475 7.30304 16.4222 7.57782C16.6971 7.85269 16.6971 8.29739 16.4222 8.57222C16.1474 8.84704 15.7026 8.84704 15.4278 8.57222C15.153 8.29734 15.153 7.85269 15.4278 7.57782ZM21.1883 6.3775L17.6226 2.81178H19.6114L21.1883 4.38865V6.3775ZM22.3886 2.60586L21.8914 3.10301L20.897 2.10861L21.3942 1.61141C21.6684 1.33729 22.1144 1.33724 22.3886 1.61141C22.6628 1.88554 22.6628 2.33164 22.3886 2.60586Z" fill="black"/>
</svg>
