<svg width="24" height="24" viewBox="0 0 24 24" fill="none" xmlns="http://www.w3.org/2000/svg">
<path d="M0.587707 14.1189L9.02516 12.7127C9.40823 12.6487 9.77047 12.9076 9.83432 13.2906C9.89816 13.6737 9.63941 14.036 9.25635 14.0998L0.818893 15.506C0.779753 15.5126 0.740847 15.5157 0.702456 15.5157C0.364958 15.5157 0.0670691 15.272 0.00974083 14.9281C-0.0541019 14.5451 0.204646 14.1828 0.587707 14.1189Z" fill="black"/>
<path d="M0.587707 11.3064L9.02516 9.90019C9.40823 9.8363 9.77047 10.0951 9.83432 10.4782C9.89816 10.8612 9.63941 11.2235 9.25635 11.2873L0.818893 12.6935C0.779753 12.7001 0.740847 12.7032 0.702456 12.7032C0.364958 12.7032 0.0670691 12.4595 0.00974083 12.1156C-0.0541019 11.7326 0.204646 11.3703 0.587707 11.3064Z" fill="black"/>
<path d="M0.587707 8.49392L9.02516 7.08768C9.40823 7.02384 9.77047 7.28259 9.83432 7.66565C9.89816 8.0487 9.63941 8.41095 9.25635 8.47479L0.818893 9.88103C0.779753 9.88755 0.740847 9.89069 0.702456 9.89069C0.364958 9.89069 0.0670691 9.64699 0.00974083 9.30307C-0.0541019 8.92001 0.204646 8.55776 0.587707 8.49392Z" fill="black"/>
<path d="M0.587707 16.9314L9.02516 15.5252C9.40823 15.4613 9.77047 15.7201 9.83432 16.1031C9.89816 16.4862 9.63941 16.8484 9.25635 16.9123L0.818893 18.3185C0.779753 18.325 0.740847 18.3282 0.702456 18.3282C0.364958 18.3282 0.0670691 18.0845 0.00974083 17.7405C-0.0541019 17.3575 0.204646 16.9952 0.587707 16.9314Z" fill="black"/>
<path d="M13.6509 4.33391C14.1013 4.37253 14.5461 4.42789 14.9835 4.49876C14.9903 4.49998 14.9972 4.50078 15.004 4.50219C17.2684 4.87193 19.3287 5.66463 20.9073 6.78709C22.9016 8.20524 24 10.0566 24 12C24 13.9434 22.9016 15.7947 20.9073 17.2129C19.3287 18.3354 17.2683 19.1281 15.0038 19.4978C14.9974 19.4992 14.9909 19.4999 14.9844 19.5011C14.5468 19.572 14.1017 19.6274 13.6509 19.6661C12.4136 19.7722 11.3438 18.7962 11.3438 17.5579V6.44214C11.3438 5.20217 12.4151 4.22778 13.6509 4.33391ZM15.5625 17.9622C17.3024 17.5879 18.8674 16.938 20.0924 16.0669C21.7054 14.9199 22.6031 13.4756 22.6031 12C22.6031 10.5244 21.7054 9.08011 20.0924 7.93313C18.8674 7.06206 17.3025 6.4121 15.5625 6.03785V17.9622ZM12.7501 17.5579C12.7501 17.9731 13.1112 18.301 13.5307 18.265C13.7409 18.2469 13.9494 18.2247 14.1563 18.1991V5.80085C13.9494 5.77526 13.7409 5.75299 13.5307 5.73499C13.113 5.69923 12.7501 6.02515 12.7501 6.44214V17.5579Z" fill="black"/>
</svg>
