<svg width="24" height="24" viewBox="0 0 24 24" fill="none" xmlns="http://www.w3.org/2000/svg">
<path d="M22.2411 15.3298C21.2541 14.76 17.4484 13.1898 14.7283 12.6226C14.6022 12.2155 14.3858 11.8479 14.1029 11.5427C14.4653 10.4422 14.7756 9.07824 15.0153 7.77549C16.5428 8.59153 17.6874 10.008 18.1477 11.6978C18.2497 12.0725 18.6361 12.2935 19.0108 12.1914C19.3854 12.0894 19.6065 11.703 19.5044 11.3283C18.9005 9.11114 17.3333 7.27936 15.2582 6.32728C15.3382 5.79919 15.4034 5.30677 15.4522 4.87678C18.6682 6.17222 20.9233 9.23049 21.16 12.7326C21.1851 13.1039 21.4941 13.3883 21.8608 13.3883C21.8767 13.3883 21.8928 13.3878 21.9089 13.3867C22.2963 13.3605 22.5891 13.0252 22.5629 12.6377C22.2706 8.3123 19.3915 4.76456 15.5539 3.41236C15.4988 1.52185 13.9449 0.000518799 12.0412 0.000518799C10.1028 0.000518799 8.52577 1.57753 8.52577 3.51591C8.52577 4.6388 9.09896 8.86885 9.97946 11.5427C9.69652 11.8478 9.4801 12.2153 9.35405 12.6224C8.23932 12.8541 6.93662 13.2526 5.71791 13.6813C5.65482 11.9233 6.31065 10.2498 7.5503 8.99972C7.82373 8.724 7.82185 8.27883 7.54613 8.00546C7.27037 7.73203 6.82529 7.73386 6.55182 8.00963C4.87332 9.70228 4.13105 11.9627 4.34274 14.19C3.84624 14.3828 3.38799 14.5707 2.99209 14.7418C2.50102 11.259 4.02995 7.82846 6.94018 5.8673C7.26221 5.65032 7.34729 5.21335 7.13035 4.89136C6.91337 4.56938 6.47649 4.48425 6.15441 4.70124C2.66012 7.05596 0.906148 11.2385 1.67232 15.3828C0.0570078 16.3772 -0.482805 18.4776 0.472461 20.1319C1.43607 21.8009 3.5694 22.3906 5.25704 21.4287C5.26285 21.4254 5.26871 21.422 5.27452 21.4186C5.27457 21.4186 5.27466 21.4186 5.27466 21.4186C6.22496 20.8699 9.54732 18.2902 11.4172 16.1944C11.8266 16.2876 12.2465 16.2896 12.6647 16.1945C13.4057 17.028 14.3795 17.9527 15.3436 18.796C13.8484 19.7442 12.0343 20.0179 10.3449 19.5719C9.96948 19.4727 9.58477 19.6967 9.48563 20.0721C9.38649 20.4475 9.61051 20.8323 9.98593 20.9314C12.1707 21.5083 14.5523 21.1044 16.4578 19.7396C16.8677 20.0754 17.2567 20.3815 17.6031 20.6426C14.8116 22.8392 11.0388 23.1837 7.94054 21.6644C7.59202 21.4935 7.17066 21.6375 6.99976 21.9862C6.8288 22.3348 6.97285 22.756 7.32151 22.927C10.9988 24.7301 15.5408 24.2712 18.8135 21.4675C20.4707 22.3638 22.5666 21.7968 23.5278 20.132C24.4993 18.4493 23.9239 16.3013 22.2411 15.3298ZM4.5714 20.2008C3.56185 20.7838 2.27312 20.4385 1.69013 19.4288C1.1072 18.4192 1.45248 17.1305 2.46216 16.5475C3.25093 16.0921 6.72938 14.6641 9.29865 14.0733C9.4262 14.637 9.72296 15.1368 10.1332 15.5164C8.3146 17.4704 5.33424 19.7604 4.5714 20.2008ZM12.0411 14.8588C11.2658 14.8588 10.635 14.228 10.635 13.4527C10.635 12.6773 11.2658 12.0465 12.0411 12.0465C12.8165 12.0465 13.4473 12.6773 13.4473 13.4527C13.4473 14.228 12.8165 14.8588 12.0411 14.8588ZM12.8738 10.7663C12.3338 10.5986 11.7496 10.5982 11.2085 10.7663C10.4374 8.22619 9.93188 4.39022 9.93188 3.51591C9.93193 2.35289 10.8781 1.40667 12.0412 1.40667C13.2042 1.40667 14.1504 2.35289 14.1504 3.51591C14.1504 4.3928 13.6436 8.23017 12.8738 10.7663ZM22.31 19.4288C21.7271 20.4384 20.4385 20.7838 19.4288 20.2008C18.6127 19.7297 15.7065 17.4121 13.9486 15.5168C14.3587 15.1375 14.6555 14.6379 14.7832 14.0746C17.3267 14.6674 20.7689 16.1035 21.538 16.5475C22.5477 17.1305 22.8929 18.4192 22.31 19.4288Z" fill="black"/>
</svg>
