<svg width="24" height="24" viewBox="0 0 24 24" fill="none" xmlns="http://www.w3.org/2000/svg">
<path d="M21.8906 9.84375H21.0666C21.1446 9.62367 21.1875 9.38709 21.1875 9.14062C21.1875 8.60077 20.9834 8.10787 20.6487 7.73438C20.9835 7.36088 21.1875 6.86798 21.1875 6.32812C21.1875 5.41148 20.5996 4.62994 19.7812 4.33969V2.10938C19.7812 0.946266 18.835 0 17.6719 0C16.5088 0 15.5625 0.946266 15.5625 2.10938V4.33969C14.7441 4.62994 14.1562 5.41148 14.1562 6.32812C14.1562 6.86798 14.3603 7.36088 14.6951 7.73438C14.3603 8.10787 14.1562 8.60077 14.1562 9.14062C14.1562 9.38709 14.1991 9.62367 14.2772 9.84375H12.6562V3.51562C12.6562 1.57711 11.0791 0 9.14062 0H3.51562C1.57711 0 0 1.57711 0 3.51562V20.4844C0 22.4229 1.57711 24 3.51562 24H9.14062C11.0791 24 12.6562 22.4229 12.6562 20.4844V15.4688H21.8906C23.0537 15.4688 24 14.5225 24 13.3594V11.9531C24 10.79 23.0537 9.84375 21.8906 9.84375ZM2.8125 22.4728C1.99411 22.1826 1.40625 21.401 1.40625 20.4844V3.51562C1.40625 2.59898 1.99411 1.81744 2.8125 1.52719C2.8125 3.86794 2.8125 20.5418 2.8125 22.4728ZM8.4375 22.5938H4.21875V22.0326L6.32812 20.6263L8.4375 22.0326V22.5938ZM8.4375 20.3424L6.71813 19.1962C6.48192 19.0388 6.17428 19.0388 5.93808 19.1962L4.21875 20.3424V17.7201L6.32812 16.3138L8.4375 17.7201V20.3424ZM8.4375 16.0299L6.71813 14.8837C6.48192 14.7263 6.17428 14.7263 5.93808 14.8837L4.21875 16.0299V13.5013L6.32812 12.0951L8.4375 13.5013V16.0299ZM8.4375 11.8112L6.71813 10.665C6.48192 10.5075 6.17428 10.5075 5.93808 10.665L4.21875 11.8112V9.28256L6.32812 7.87631L8.4375 9.28256V11.8112ZM8.4375 7.59244L6.71813 6.4462C6.48192 6.2888 6.17428 6.2888 5.93808 6.4462L4.21875 7.59244V5.06381L6.32812 3.65756L8.4375 5.06381V7.59244ZM8.4375 3.37369L6.71813 2.22745C6.48192 2.07005 6.17428 2.07005 5.93808 2.22745L4.21875 3.37369V1.40625H8.4375V3.37369ZM11.25 20.4844C11.25 21.401 10.6621 22.1826 9.84375 22.4728C9.84375 14.1413 9.84375 16.5748 9.84375 1.52719C10.6621 1.81744 11.25 2.59898 11.25 3.51562V20.4844ZM16.9688 2.10938C16.9688 1.72167 17.2842 1.40625 17.6719 1.40625C18.0596 1.40625 18.375 1.72167 18.375 2.10938V4.21875H16.9688V2.10938ZM16.2656 5.625H19.0781C19.4658 5.625 19.7812 5.94042 19.7812 6.32812C19.7812 6.71583 19.4658 7.03125 19.0781 7.03125H16.2656C15.8779 7.03125 15.5625 6.71583 15.5625 6.32812C15.5625 5.94042 15.8779 5.625 16.2656 5.625ZM16.2656 8.4375H19.0781C19.4658 8.4375 19.7812 8.75292 19.7812 9.14062C19.7812 9.52833 19.4658 9.84375 19.0781 9.84375H16.2656C15.8779 9.84375 15.5625 9.52833 15.5625 9.14062C15.5625 8.75292 15.8779 8.4375 16.2656 8.4375ZM22.5938 13.3594C22.5938 13.7471 22.2783 14.0625 21.8906 14.0625H12.6562V11.25C13.6171 11.25 20.9417 11.25 21.8906 11.25C22.2783 11.25 22.5938 11.5654 22.5938 11.9531V13.3594Z" fill="black"/>
</svg>
