<svg width="22" height="22" viewBox="0 0 22 22" fill="none" xmlns="http://www.w3.org/2000/svg">
<path fill-rule="evenodd" clip-rule="evenodd" d="M6.16177 2.21895L10.1046 6.16177L6.16177 10.1046L2.21895 6.16177L6.16177 2.21895ZM5.21896 1.27614C5.73965 0.755446 6.58388 0.755445 7.10457 1.27614L11.0474 5.21895C11.5681 5.73965 11.5681 6.58388 11.0474 7.10457L7.10458 11.0474C6.58388 11.5681 5.73966 11.5681 5.21896 11.0474L1.27614 7.10458C0.755446 6.58388 0.755445 5.73966 1.27614 5.21896L5.21896 1.27614ZM2.99998 14.1618H8.99998V20.1618H2.99998V14.1618ZM1.66665 14.1618C1.66665 13.4254 2.2636 12.8285 2.99998 12.8285H8.99998C9.73636 12.8285 10.3333 13.4254 10.3333 14.1618V20.1618C10.3333 20.8982 9.73636 21.4951 8.99998 21.4951H2.99998C2.2636 21.4951 1.66665 20.8982 1.66665 20.1618V14.1618ZM20.3333 2.82845H14.3333V8.82845H20.3333V2.82845ZM14.3333 1.49512C13.5969 1.49512 13 2.09207 13 2.82845V8.82845C13 9.56483 13.5969 10.1618 14.3333 10.1618H20.3333C21.0697 10.1618 21.6666 9.56483 21.6666 8.82845V2.82845C21.6666 2.09207 21.0697 1.49512 20.3333 1.49512H14.3333ZM14.3333 14.1618H20.3333V20.1618H14.3333V14.1618ZM13 14.1618C13 13.4254 13.5969 12.8285 14.3333 12.8285H20.3333C21.0697 12.8285 21.6666 13.4254 21.6666 14.1618V20.1618C21.6666 20.8982 21.0697 21.4951 20.3333 21.4951H14.3333C13.5969 21.4951 13 20.8982 13 20.1618V14.1618Z" fill="black"/>
</svg>
