<svg width="200" height="42" viewBox="0 0 200 42" fill="none" xmlns="http://www.w3.org/2000/svg">
<path d="M50.0173 41.6651V36.3134H48.7371C48.0772 36.2748 47.4547 35.9976 46.9883 35.5345C46.5218 35.0715 46.244 34.455 46.2077 33.8025V8.15313C46.2452 7.48863 46.5283 6.86089 47.0032 6.3891C47.478 5.91731 48.1116 5.63431 48.7836 5.59384L50.0973 5.58658L50.1079 0.552688H33.4185V5.58658H34.6514C35.3273 5.62897 35.9647 5.91258 36.4449 6.38467C36.9252 6.85676 37.2157 7.4852 37.2624 8.15313V33.7864C37.2158 34.4343 36.9343 35.0438 36.4696 35.5031C36.005 35.9624 35.3884 36.2407 34.733 36.2868H33.3255V41.6603L50.0173 41.6651ZM179.491 0.553495L166.212 0.560756L166.235 5.60271L167.491 5.589C168.7 5.589 169.986 6.98842 169.986 8.37575L170.008 33.8025C169.982 34.4552 169.708 35.0741 169.24 35.5355C168.772 35.9969 168.146 36.267 167.486 36.2916H166.187V41.6441H179.988V36.2916L178.746 36.3005C178.102 36.2727 177.49 36.0185 177.019 35.5836C176.548 35.1488 176.25 34.562 176.179 33.9291L176.185 15.364L186.537 41.6441H195.311L195.319 8.07732C195.371 7.40367 195.678 6.77415 196.179 6.31514C196.681 5.85613 197.339 5.60162 198.023 5.60271H199.138V0.553495H185.358V5.60271H186.7C187.358 5.62932 187.983 5.89475 188.455 6.34819C188.927 6.80164 189.213 7.41125 189.259 8.06037V24.5679L179.491 0.553495ZM133.179 36.2916C131.863 36.2916 131.685 35.8327 130.449 34.2236C130.449 34.2236 121.463 21.6844 120.005 19.5671C120.964 18.1757 129.091 6.53432 129.091 6.53432C129.263 6.23269 129.517 5.98446 129.824 5.81749C130.131 5.65051 130.479 5.57139 130.829 5.589H132.339V0.566399L118.323 0.553495V5.589H119.19C119.371 5.56865 119.554 5.59511 119.722 5.6658C119.89 5.73648 120.036 5.84898 120.147 5.9923C120.59 6.54561 119.739 7.67967 119.518 7.96762L112.532 18.0499L112.526 8.05473C112.554 7.40662 112.828 6.79284 113.293 6.33509C113.759 5.87734 114.381 5.60903 115.036 5.58335H116.351L116.334 0.547852H99.3995V5.589H100.721C101.365 5.62972 101.971 5.90459 102.422 6.36063C102.873 6.81667 103.137 7.42159 103.163 8.05876V33.7775C103.129 34.4349 102.85 35.0564 102.379 35.522C101.909 35.9877 101.28 36.2645 100.615 36.2989L99.317 36.29V41.6465H116.459V36.29H115.178C114.494 36.2815 113.839 36.0176 113.344 35.5513C112.849 35.0849 112.55 34.4507 112.509 33.7759L112.522 22.5378C113.185 23.2984 120.667 34.3583 120.667 34.3583C121.622 36.29 120.214 36.29 119.575 36.29H118.591L118.573 41.6465H133.558L133.545 36.2941L133.179 36.2916ZM135.651 41.6441H163.439V31.09L158.797 31.0997L158.801 33.8291C158.755 34.4766 158.47 35.0848 158 35.5386C157.531 35.9924 156.909 36.2603 156.253 36.2916H148.746L148.751 22.5442L151.739 22.5515C152.385 22.6314 152.986 22.9216 153.447 23.3764C153.907 23.8312 154.201 24.4247 154.283 25.0632L154.293 26.6707L158.844 26.6747V13.8581H154.293L154.283 15.4342C154.296 15.7538 154.242 16.0726 154.126 16.3711C154.01 16.6695 153.833 16.9414 153.607 17.17C153.38 17.3986 153.109 17.5791 152.81 17.7005C152.511 17.8218 152.189 17.8814 151.866 17.8757L148.746 17.858L148.741 5.59787L155.776 5.5882C156.435 5.61184 157.062 5.87856 157.533 6.3359C158.003 6.79324 158.284 7.4081 158.319 8.05957L158.344 10.7124H162.889V0.549464H135.745V5.58497H136.999C137.648 5.61354 138.263 5.87516 138.731 6.3207C139.198 6.76624 139.485 7.36506 139.537 8.00472V33.842C139.446 34.4778 139.141 35.0647 138.671 35.5083C138.201 35.9519 137.594 36.2264 136.948 36.2876H135.651V41.6441ZM23.8335 41.6465V36.2916H22.0947C21.7634 36.2895 21.4358 36.2228 21.1306 36.0953C20.8255 35.9678 20.5487 35.782 20.3163 35.5486C20.0839 35.3152 19.9004 35.0388 19.7763 34.7351C19.6522 34.4315 19.5899 34.1066 19.593 33.7791V5.589H23.2354C23.9094 5.589 24.5559 5.85357 25.0326 6.32456C25.5094 6.79555 25.7775 7.43441 25.7779 8.10071V11.6795H29.8242V0.553495H0.867775L0.862061 11.6981L4.91407 11.6932L4.91896 8.11442C4.91875 7.78452 4.98432 7.45781 5.11194 7.15298C5.23955 6.84815 5.42671 6.57118 5.66269 6.3379C5.89867 6.10463 6.17886 5.91962 6.48723 5.79347C6.7956 5.66732 7.1261 5.6025 7.45983 5.60271L11.1047 5.59465L11.0941 33.7928C11.0977 34.1196 11.0358 34.4439 10.912 34.7469C10.7881 35.0499 10.6047 35.3256 10.3724 35.5581C10.14 35.7906 9.86341 35.9753 9.55844 36.1015C9.25348 36.2277 8.92623 36.2928 8.59563 36.2932H6.86174V41.6457L23.8335 41.6465ZM57.8594 8.10232C57.8288 7.44576 57.5514 6.82414 57.0814 6.35924C56.6114 5.89434 55.9827 5.61966 55.3186 5.589H54.0326L54.0375 0.553495H67.3832L74.6819 25.0511L82.0099 0.553495H95.407V5.589H94.1504C93.4825 5.62468 92.8511 5.90158 92.376 6.36713C91.901 6.83269 91.6155 7.45447 91.5737 8.11442V33.8654C91.6079 34.5107 91.8876 35.1193 92.3567 35.5693C92.8258 36.0192 93.4496 36.2773 94.1031 36.2916H95.3556V41.6441H80.1724L80.1618 36.2916H80.9443C82.116 36.2916 82.9915 35.2148 82.9915 33.8291L83.0176 15.4479L75.24 41.6441H71.3952L63.9007 15.5979L63.8722 33.8388C63.8419 34.1344 63.8715 34.433 63.9593 34.7171C64.0471 35.0012 64.1913 35.2652 64.3835 35.4935C64.5757 35.7219 64.8121 35.9101 65.0787 36.0472C65.3454 36.1842 65.637 36.2673 65.9365 36.2916H66.7117V41.6441H53.9804V36.2916L55.2786 36.3005C55.9427 36.2784 56.5744 36.0114 57.0494 35.5521C57.5244 35.0928 57.8085 34.4745 57.8456 33.8186C57.8456 33.8186 57.8635 9.49771 57.8635 8.10232" fill="#FF8300"/>
</svg>
