<svg width="25" height="20" viewBox="0 0 25 25" xmlns="http://www.w3.org/2000/svg">
                    <path d="M23.5833 10.6667C23.2083 10.375 22.7083 10 22.6667 9.79167C22.625 9.58333 22.8333 8.95833 23.0417 8.5C23.25 8.04167 23.7083 6.91667 23.3333 6.25C22.9583 5.58333 22.0417 5.45833 21.2083 5.375C20.7619 5.37116 20.3214 5.27171 19.9167 5.08333C19.7283 4.67856 19.6288 4.23811 19.625 3.79167C19.5417 2.95833 19.4167 2.08333 18.75 1.66667C18.0833 1.25 17.2917 1.625 16.5 1.95833C16.1008 2.17319 15.6605 2.301 15.2083 2.33333C15 2.29167 14.625 1.79167 14.3333 1.41667C14.0417 1.04167 13.2917 0 12.5 0C11.7083 0 11.125 0.75 10.6667 1.41667C10.2083 2.08333 10 2.29167 9.66667 2.375C9.25675 2.30408 8.8621 2.16314 8.5 1.95833C7.70833 1.625 6.83333 1.33333 6.25 1.66667C5.66667 2 5.45833 2.95833 5.375 3.79167C5.37116 4.23811 5.27171 4.67856 5.08333 5.08333C4.67856 5.27171 4.23811 5.37116 3.79167 5.375C2.95833 5.45833 2.08333 5.58333 1.66667 6.25C1.25 6.91667 1.625 7.70833 1.95833 8.5C2.29167 9.29167 2.41667 9.54167 2.33333 9.79167C2.25 10.0417 1.79167 10.375 1.41667 10.6667C1.04167 10.9583 0 11.7083 0 12.5C0 13.2917 0.75 13.875 1.41667 14.3333C2.08333 14.7917 2.29167 15 2.33333 15.2083C2.375 15.4167 2.16667 16.0417 1.95833 16.5C1.75 16.9583 1.29167 18.0833 1.66667 18.75C2.04167 19.4167 2.95833 19.5417 3.79167 19.625C4.23811 19.6288 4.67856 19.7283 5.08333 19.9167C5.27171 20.3214 5.37116 20.7619 5.375 21.2083C5.45833 22.0417 5.58333 22.9167 6.25 23.3333C6.91667 23.75 7.70833 23.375 8.5 23.0417C8.89144 22.8084 9.33614 22.6792 9.79167 22.6667C10 22.7083 10.375 23.2083 10.6667 23.5833C10.9583 23.9583 11.7083 25 12.5 25C13.2917 25 13.875 24.25 14.3333 23.5833C14.7917 22.9167 15 22.7083 15.3333 22.625C15.7432 22.6959 16.1379 22.8369 16.5 23.0417C17.2917 23.375 18.1667 23.6667 18.75 23.3333C19.3333 23 19.5417 22.0417 19.625 21.2083C19.6288 20.7619 19.7283 20.3214 19.9167 19.9167C20.3214 19.7283 20.7619 19.6288 21.2083 19.625C22.0417 19.5417 22.9167 19.4167 23.3333 18.75C23.75 18.0833 23.375 17.2917 23.0417 16.5C22.7083 15.7083 22.5833 15.4583 22.6667 15.2083C22.75 14.9583 23.2083 14.625 23.5833 14.3333C23.9583 14.0417 25 13.2917 25 12.5C25 11.7083 24.25 11.125 23.5833 10.6667ZM9.79167 14.6667C9.79102 14.7842 9.75487 14.8988 9.68795 14.9955C9.62104 15.0922 9.52648 15.1663 9.41667 15.2083H9.25C9.07586 15.2015 8.91134 15.1267 8.79167 15L6.54167 11.9583V14.6667C6.54189 14.7414 6.52662 14.8155 6.49684 14.884C6.46705 14.9526 6.42338 15.0143 6.36858 15.0652C6.31378 15.1161 6.24904 15.1551 6.17844 15.1797C6.10783 15.2043 6.03289 15.2141 5.95833 15.2083C5.81467 15.2083 5.6769 15.1513 5.57532 15.0497C5.47373 14.9481 5.41667 14.8103 5.41667 14.6667V10.3333C5.41731 10.2158 5.45346 10.1012 5.52038 10.0045C5.5873 9.90784 5.68186 9.83365 5.79167 9.79167C5.90497 9.76928 6.02214 9.77671 6.1317 9.81324C6.24126 9.84976 6.33946 9.91411 6.41667 10L8.70833 13.0417V10.3333C8.70833 10.1897 8.7654 10.0519 8.86698 9.95032C8.96857 9.84873 9.10634 9.79167 9.25 9.79167C9.39366 9.79167 9.53143 9.84873 9.63302 9.95032C9.7346 10.0519 9.79167 10.1897 9.79167 10.3333V14.6667ZM13.5833 11.9583C13.727 11.9583 13.8648 12.0154 13.9663 12.117C14.0679 12.2186 14.125 12.3563 14.125 12.5C14.125 12.6437 14.0679 12.7814 13.9663 12.883C13.8648 12.9846 13.727 13.0417 13.5833 13.0417H11.9583V14.125H13.5833C13.727 14.125 13.8648 14.1821 13.9663 14.2837C14.0679 14.3852 14.125 14.523 14.125 14.6667C14.125 14.8103 14.0679 14.9481 13.9663 15.0497C13.8648 15.1513 13.727 15.2083 13.5833 15.2083H11.4167C11.273 15.2083 11.1352 15.1513 11.0337 15.0497C10.9321 14.9481 10.875 14.8103 10.875 14.6667V10.3333C10.875 10.1897 10.9321 10.0519 11.0337 9.95032C11.1352 9.84873 11.273 9.79167 11.4167 9.79167H13.5833C13.727 9.79167 13.8648 9.84873 13.9663 9.95032C14.0679 10.0519 14.125 10.1897 14.125 10.3333C14.125 10.477 14.0679 10.6148 13.9663 10.7163C13.8648 10.8179 13.727 10.875 13.5833 10.875H11.9583V11.9583H13.5833ZM20.625 10.4583L19.5417 14.7917C19.5218 14.9094 19.4604 15.0161 19.3687 15.0925C19.277 15.1689 19.161 15.21 19.0417 15.2083H19C18.8881 15.2051 18.78 15.1674 18.6905 15.1002C18.6009 15.0331 18.5344 14.9398 18.5 14.8333L17.9167 13.125L17.375 14.8333C17.3385 14.9467 17.2656 15.0449 17.1677 15.1126C17.0698 15.1804 16.9523 15.2141 16.8333 15.2083C16.714 15.21 16.598 15.1689 16.5063 15.0925C16.4146 15.0161 16.3532 14.9094 16.3333 14.7917L15.25 10.4583C15.2115 10.3202 15.2294 10.1725 15.2997 10.0475C15.37 9.92253 15.487 9.83053 15.625 9.79167C15.6962 9.77322 15.7704 9.76948 15.8431 9.78066C15.9158 9.79184 15.9855 9.81771 16.0479 9.8567C16.1103 9.89569 16.1641 9.94697 16.206 10.0074C16.2479 10.0679 16.277 10.1362 16.2917 10.2083L16.9167 12.75L17.4167 11.25C17.4653 11.1536 17.5397 11.0726 17.6317 11.016C17.7236 10.9593 17.8295 10.9294 17.9375 10.9294C18.0455 10.9294 18.1514 10.9593 18.2433 11.016C18.3353 11.0726 18.4097 11.1536 18.4583 11.25L18.9583 12.75L19.5833 10.2083C19.598 10.1362 19.6271 10.0679 19.669 10.0074C19.7109 9.94697 19.7647 9.89569 19.8271 9.8567C19.8895 9.81771 19.9592 9.79184 20.0319 9.78066C20.1046 9.76948 20.1788 9.77322 20.25 9.79167C20.388 9.83053 20.505 9.92253 20.5753 10.0475C20.6456 10.1725 20.6635 10.3202 20.625 10.4583Z"></path>
                </svg>