<svg width="25" height="25" viewBox="0 0 25 25" fill="rgba(33, 37, 41, 0.85)" xmlns="http://www.w3.org/2000/svg">
    <g clip-path="url(#clip0)">
        <path d="M13.3337 18.5416V18.125C13.3375 18.0223 13.3068 17.9212 13.2463 17.8381C13.1859 17.755 13.0992 17.6946 13.0003 17.6666L11.7503 17.375C11.7207 17.0887 11.6505 16.8082 11.542 16.5416L12.5003 15.7083C12.5707 15.6391 12.6169 15.5489 12.6319 15.4513C12.6469 15.3537 12.63 15.2539 12.5837 15.1666L12.3753 14.7916C12.3208 14.7126 12.2447 14.6509 12.156 14.6139C12.0673 14.577 11.9699 14.5663 11.8753 14.5833L10.667 14.9583L10.042 14.3333L10.417 13.125C10.434 13.0304 10.4233 12.933 10.3864 12.8443C10.3495 12.7557 10.2877 12.6795 10.2087 12.625L9.83366 12.4166C9.74644 12.3703 9.6466 12.3534 9.549 12.3684C9.4514 12.3835 9.36125 12.4296 9.29199 12.5L8.41699 13.4166L7.58366 13.2083L7.33366 12C7.3057 11.9011 7.24531 11.8144 7.16219 11.754C7.07906 11.6935 6.97803 11.6628 6.87533 11.6666H6.45866C6.35595 11.6628 6.25492 11.6935 6.1718 11.754C6.08868 11.8144 6.02828 11.9011 6.00033 12L5.70866 13.2083L4.87533 13.4166L4.04199 12.5C3.97273 12.4296 3.88259 12.3835 3.78499 12.3684C3.68738 12.3534 3.58754 12.3703 3.50033 12.4166L3.12533 12.625C3.04624 12.6795 2.98453 12.7557 2.94759 12.8443C2.91064 12.933 2.90002 13.0304 2.91699 13.125L3.29199 14.3333L2.66699 14.9583L1.45866 14.5833C1.36411 14.5663 1.26667 14.577 1.178 14.6139C1.08933 14.6509 1.01318 14.7126 0.958659 14.7916L0.750326 15.1666C0.70401 15.2539 0.687101 15.3537 0.702117 15.4513C0.717133 15.5489 0.76327 15.6391 0.83366 15.7083L1.79199 16.5416C1.66699 16.8333 1.62533 17.125 1.54199 17.375L0.333659 17.6666C0.234754 17.6946 0.148116 17.755 0.0876628 17.8381C0.0272098 17.9212 -0.00354948 18.0223 0.000326128 18.125V18.5416C-0.00354948 18.6444 0.0272098 18.7454 0.0876628 18.8285C0.148116 18.9116 0.234754 18.972 0.333659 19L1.54199 19.2916C1.60613 19.5748 1.68966 19.8533 1.79199 20.125L0.83366 20.9583C0.76327 21.0276 0.717133 21.1177 0.702117 21.2153C0.687101 21.3129 0.70401 21.4128 0.750326 21.5L0.958659 21.875C1.01318 21.9541 1.08933 22.0158 1.178 22.0527C1.26667 22.0897 1.36411 22.1003 1.45866 22.0833L2.66699 21.7083L3.29199 22.3333L2.91699 23.5416C2.90002 23.6362 2.91064 23.7336 2.94759 23.8223C2.98453 23.911 3.04624 23.9871 3.12533 24.0416L3.50033 24.25C3.58754 24.2963 3.68738 24.3132 3.78499 24.2982C3.88259 24.2832 3.97273 24.237 4.04199 24.1666L4.91699 23.2083C5.18676 23.3163 5.46565 23.4 5.75033 23.4583L6.00033 24.6666C6.02828 24.7656 6.08868 24.8522 6.1718 24.9126C6.25492 24.9731 6.35595 25.0039 6.45866 25H6.87533C6.97803 25.0039 7.07906 24.9731 7.16219 24.9126C7.24531 24.8522 7.3057 24.7656 7.33366 24.6666L7.62533 23.4583L8.45866 23.2083L9.29199 24.1666C9.36125 24.237 9.4514 24.2832 9.549 24.2982C9.6466 24.3132 9.74644 24.2963 9.83366 24.25L10.2087 24.0416C10.2877 23.9871 10.3495 23.911 10.3864 23.8223C10.4233 23.7336 10.434 23.6362 10.417 23.5416L10.042 22.3333L10.667 21.7083L11.8753 22.0833C11.9699 22.1003 12.0673 22.0897 12.156 22.0527C12.2447 22.0158 12.3208 21.9541 12.3753 21.875L12.5837 21.5C12.63 21.4128 12.6469 21.3129 12.6319 21.2153C12.6169 21.1177 12.5707 21.0276 12.5003 20.9583L11.5837 20.0833C11.667 19.8333 11.7087 19.5416 11.792 19.25L13.0003 19C13.0992 18.972 13.1859 18.9116 13.2463 18.8285C13.3068 18.7454 13.3375 18.6444 13.3337 18.5416ZM7.29199 21.4166C6.78384 21.5145 6.25945 21.4863 5.76471 21.3346C5.26996 21.1829 4.81994 20.9122 4.45403 20.5463C4.08811 20.1804 3.81744 19.7303 3.66571 19.2356C3.51398 18.7409 3.48581 18.2165 3.58366 17.7083C3.71388 17.1057 4.015 16.5533 4.45098 16.1173C4.88696 15.6813 5.43933 15.3802 6.04199 15.25C6.55015 15.1521 7.07453 15.1803 7.56928 15.332C8.06402 15.4838 8.51404 15.7544 8.87996 16.1203C9.24588 16.4863 9.51655 16.9363 9.66828 17.431C9.82001 17.9258 9.84818 18.4502 9.75033 18.9583C9.6201 19.561 9.31898 20.1133 8.883 20.5493C8.44702 20.9853 7.89465 21.2864 7.29199 21.4166Z"
             />
        <path d="M6.66634 17.25C6.45208 17.25 6.24263 17.3135 6.06447 17.4326C5.88632 17.5516 5.74747 17.7208 5.66547 17.9187C5.58348 18.1167 5.56202 18.3345 5.60382 18.5447C5.64562 18.7548 5.7488 18.9478 5.90031 19.0993C6.05182 19.2509 6.24485 19.354 6.45499 19.3958C6.66514 19.4376 6.88296 19.4162 7.08092 19.3342C7.27887 19.2522 7.44806 19.1133 7.5671 18.9352C7.68614 18.757 7.74968 18.5476 7.74968 18.3333C7.75555 18.1895 7.73155 18.046 7.67919 17.9119C7.62683 17.7778 7.54724 17.656 7.44545 17.5542C7.34365 17.4524 7.22187 17.3728 7.08777 17.3205C6.95367 17.2681 6.81018 17.2441 6.66634 17.25Z"
              />
        <path d="M24.7496 10.25L24.8746 9.83336C24.9087 9.70563 24.8984 9.5701 24.8454 9.44897C24.7925 9.32785 24.6999 9.22832 24.5829 9.16669L23.3329 8.50003C23.3748 8.15407 23.3748 7.80432 23.3329 7.45836L24.6246 6.79169C24.7505 6.7287 24.8494 6.6223 24.903 6.49211C24.9566 6.36193 24.9613 6.21675 24.9163 6.08336L24.7496 5.62503C24.7197 5.49922 24.6423 5.38989 24.5335 5.31997C24.4247 5.25004 24.2931 5.22498 24.1663 5.25003L22.7079 5.33336L22.1663 4.37503L22.9579 3.16669C23.0332 3.05406 23.0698 2.92001 23.0623 2.78474C23.0548 2.64947 23.0035 2.5203 22.9163 2.41669L22.5829 2.08336C22.4793 1.99607 22.3502 1.9448 22.2149 1.93729C22.0796 1.92977 21.9456 1.96641 21.8329 2.04169L20.6246 2.79169C20.3476 2.60062 20.0549 2.43335 19.7496 2.29169L19.8329 0.83336C19.8361 0.698055 19.792 0.56587 19.7084 0.459448C19.6248 0.353027 19.5068 0.278992 19.3746 0.250027L18.9579 0.125027C18.8304 0.0821944 18.6915 0.088331 18.5683 0.142242C18.4451 0.196154 18.3463 0.293984 18.2913 0.416694L17.5829 1.70836H16.5829L15.9579 0.416694C15.8949 0.290783 15.7885 0.191904 15.6583 0.138298C15.5282 0.0846929 15.383 0.0799792 15.2496 0.125027L14.8329 0.250027C14.7043 0.279791 14.591 0.355492 14.5143 0.462907C14.4376 0.570321 14.4027 0.702056 14.4163 0.83336V2.29169L13.5413 2.83336L12.2913 2.00003C12.1788 1.94002 12.0506 1.91584 11.924 1.93074C11.7974 1.94563 11.6784 1.99889 11.5829 2.08336L11.2913 2.37503C11.1908 2.46991 11.1272 2.59738 11.112 2.73474C11.0967 2.87209 11.1307 3.0104 11.2079 3.12503L11.9579 4.33336C11.7668 4.61038 11.5996 4.9031 11.4579 5.20836L9.99959 5.12503C9.86985 5.11965 9.74203 5.15771 9.63636 5.23318C9.5307 5.30865 9.45324 5.41722 9.41625 5.54169L9.29125 6.00003C9.25713 6.12776 9.2674 6.26329 9.32039 6.38441C9.37339 6.50554 9.46595 6.60507 9.58292 6.66669L10.8746 7.33336C10.8327 7.67932 10.8327 8.02907 10.8746 8.37503L9.58292 9.04169C9.46595 9.10332 9.37339 9.20285 9.32039 9.32397C9.2674 9.4451 9.25713 9.58063 9.29125 9.70836L9.41625 10.1667C9.44602 10.2953 9.52172 10.4086 9.62913 10.4853C9.73655 10.5621 9.86828 10.5969 9.99959 10.5834L11.4579 10.5C11.6065 10.8365 11.7879 11.1575 11.9996 11.4584L11.2079 12.6667C11.1326 12.7793 11.096 12.9134 11.1035 13.0487C11.111 13.1839 11.1623 13.3131 11.2496 13.4167L11.5829 13.75C11.6865 13.8373 11.8157 13.8886 11.951 13.8961C12.0862 13.9036 12.2203 13.867 12.3329 13.7917L13.5413 13.0417C13.8183 13.2328 14.111 13.4 14.4163 13.5417L14.3329 15C14.3298 15.1353 14.3738 15.2675 14.4574 15.3739C14.541 15.4804 14.659 15.5544 14.7913 15.5834L15.2079 15.7084C15.3354 15.7512 15.4743 15.7451 15.5975 15.6911C15.7207 15.6372 15.8195 15.5394 15.8746 15.4167L16.5413 14.1667C16.8872 14.2086 17.237 14.2086 17.5829 14.1667L18.2913 15.4584C18.3463 15.5811 18.4451 15.6789 18.5683 15.7328C18.6915 15.7867 18.8304 15.7929 18.9579 15.75L19.3746 15.625C19.5109 15.6044 19.6341 15.5325 19.7193 15.4241C19.8044 15.3158 19.8451 15.179 19.8329 15.0417L19.7496 13.5834C20.0637 13.4328 20.3697 13.2659 20.6663 13.0834L21.8746 13.875C21.9947 13.9332 22.1289 13.9563 22.2616 13.9415C22.3943 13.9268 22.5201 13.8749 22.6246 13.7917L22.9579 13.4584C23.0411 13.3539 23.093 13.2281 23.1078 13.0954C23.1225 12.9627 23.0995 12.8285 23.0413 12.7084L22.2496 11.5C22.4557 11.2328 22.624 10.9383 22.7496 10.625H24.1663C24.2908 10.6332 24.4147 10.6011 24.5197 10.5336C24.6247 10.4661 24.7053 10.3667 24.7496 10.25ZM16.2913 10.8334C15.5237 10.6281 14.8689 10.1268 14.4706 9.43944C14.0722 8.75204 13.9627 7.93468 14.1663 7.16669C14.3707 6.39315 14.874 5.73249 15.5656 5.33007C16.2571 4.92765 17.0802 4.81642 17.8538 5.02086C18.6273 5.2253 19.288 5.72865 19.6904 6.42019C20.0928 7.11173 20.204 7.93481 19.9996 8.70836C19.7758 9.47308 19.2647 10.1215 18.5734 10.5176C17.882 10.9138 17.0642 11.0269 16.2913 10.8334Z"
              />
        <path d="M17.4585 6.62502C17.2055 6.55399 16.9373 6.55927 16.6873 6.64018C16.4374 6.72109 16.2169 6.87404 16.0536 7.07982C15.8903 7.2856 15.7914 7.53503 15.7694 7.79682C15.7473 8.0586 15.8031 8.32106 15.9297 8.55125C16.0563 8.78145 16.2481 8.96911 16.481 9.09068C16.7139 9.21225 16.9775 9.26231 17.2387 9.23458C17.5 9.20685 17.7472 9.10257 17.9494 8.93481C18.1515 8.76706 18.2997 8.54332 18.3751 8.29168C18.4564 7.94966 18.4075 7.58965 18.2381 7.28163C18.0687 6.97361 17.7908 6.73958 17.4585 6.62502Z"
             />
        <path d="M8.91675 7.7083V7.12496C8.91164 7.02941 8.87675 6.93785 8.81697 6.86312C8.75719 6.7884 8.67552 6.73426 8.58342 6.7083L7.70842 6.49996C7.65491 6.24813 7.55608 6.00812 7.41675 5.79163L7.87508 5.04163C7.93408 4.96129 7.96231 4.86246 7.95467 4.76307C7.94702 4.66369 7.904 4.57034 7.83342 4.49996L7.37508 4.04163C7.30471 3.97104 7.21136 3.92803 7.11198 3.92038C7.01259 3.91274 6.91376 3.94097 6.83342 3.99996L6.08342 4.49996C5.87893 4.33131 5.63537 4.2167 5.37508 4.16663L5.16675 3.29163C5.14079 3.19953 5.08665 3.11786 5.01193 3.05808C4.9372 2.9983 4.84564 2.96341 4.75008 2.9583H4.16675C4.06702 2.96612 3.97141 3.0014 3.89051 3.06024C3.80961 3.11908 3.74659 3.19917 3.70842 3.29163L3.54175 4.16663C3.28146 4.2167 3.03791 4.33131 2.83342 4.49996L2.08342 3.99996C2.00307 3.94097 1.90424 3.91274 1.80486 3.92038C1.70548 3.92803 1.61213 3.97104 1.54175 4.04163L1.08342 4.49996C1.01283 4.57034 0.969813 4.66369 0.962168 4.76307C0.954523 4.86246 0.982759 4.96129 1.04175 5.04163L1.50008 5.74996C1.36016 5.98119 1.26147 6.23496 1.20842 6.49996L0.333418 6.7083C0.237886 6.72778 0.152211 6.78014 0.0913047 6.85627C0.0303986 6.93241 -0.00188104 7.02749 8.47662e-05 7.12496V7.7083C0.00274239 7.80945 0.0360283 7.90742 0.0955442 7.98925C0.15506 8.07109 0.238005 8.13294 0.333418 8.16663L1.20842 8.3333C1.23658 8.59227 1.33773 8.83792 1.50008 9.04163L1.04175 9.74996C0.982759 9.83031 0.954523 9.92914 0.962168 10.0285C0.969813 10.1279 1.01283 10.2213 1.08342 10.2916L1.54175 10.75C1.61213 10.8206 1.70548 10.8636 1.80486 10.8712C1.90424 10.8789 2.00307 10.8506 2.08342 10.7916L2.79175 10.2916C3.01602 10.4534 3.2714 10.5669 3.54175 10.625L3.70842 11.5C3.74659 11.5924 3.80961 11.6725 3.89051 11.7314C3.97141 11.7902 4.06702 11.8255 4.16675 11.8333H4.75008C4.84564 11.8282 4.9372 11.7933 5.01193 11.7335C5.08665 11.6737 5.14079 11.5921 5.16675 11.5L5.37508 10.625C5.64544 10.5669 5.90082 10.4534 6.12508 10.2916L6.83342 10.7916C6.91376 10.8506 7.01259 10.8789 7.11198 10.8712C7.21136 10.8636 7.30471 10.8206 7.37508 10.75L7.83342 10.2916C7.904 10.2213 7.94702 10.1279 7.95467 10.0285C7.96231 9.92914 7.93408 9.83031 7.87508 9.74996L7.37508 8.99996C7.54373 8.79548 7.65835 8.55192 7.70842 8.29163L8.54175 8.12496C8.64155 8.1068 8.73251 8.05605 8.80038 7.98064C8.86824 7.90524 8.90917 7.80946 8.91675 7.7083ZM4.45842 8.62496C4.30164 8.62506 4.14645 8.59356 4.00212 8.53235C3.85778 8.47113 3.72727 8.38145 3.61837 8.26866C3.50947 8.15587 3.42443 8.02229 3.36831 7.8759C3.31219 7.72951 3.28615 7.57331 3.29175 7.41663C3.30137 7.11733 3.42179 6.83227 3.62965 6.61672C3.83751 6.40116 4.118 6.27046 4.41675 6.24996C4.58039 6.23812 4.74469 6.26093 4.89892 6.3169C5.05315 6.37287 5.19384 6.46074 5.3118 6.57477C5.42976 6.6888 5.52235 6.82643 5.58351 6.97867C5.64467 7.13092 5.67304 7.29435 5.66675 7.4583C5.65594 7.77149 5.52388 8.06824 5.29844 8.28591C5.07299 8.50358 4.7718 8.62515 4.45842 8.62496Z"
              />
    </g>
    <defs>
        <clipPath id="clip0">
            <rect width="25" height="25" fill="white"/>
        </clipPath>
    </defs>
</svg>