<svg width="25" height="20" viewBox="0 0 30 29" xmlns="http://www.w3.org/2000/svg">
                    <path d="M29.9216 10.8627C29.724 10.2552 29.1852 9.82515 28.5503 9.7677L19.8902 8.98147L16.4677 0.968644C16.215 0.37995 15.64 0 15 0C14.3601 0 13.7849 0.37995 13.5338 0.968644L10.1113 8.98147L1.44978 9.7677C0.814851 9.82629 0.277199 10.2564 0.0785259 10.8627C-0.119002 11.4701 0.0634195 12.1364 0.543622 12.5576L7.08998 18.2978L5.15979 26.7991C5.01857 27.4242 5.26118 28.0705 5.77984 28.4455C6.05862 28.648 6.38616 28.7492 6.71484 28.7492C6.99728 28.7492 7.27995 28.6741 7.53242 28.523L15 24.0579L22.4663 28.523C23.014 28.8504 23.7027 28.8204 24.2202 28.4455C24.7389 28.0705 24.9815 27.4242 24.8403 26.7991L22.9101 18.2978L29.4565 12.5576C29.9364 12.1364 30.1191 11.4715 29.9216 10.8627Z"></path>
                </svg>