<svg width="45" height="45" viewBox="0 0 45 45" fill="none" xmlns="http://www.w3.org/2000/svg">
<path d="M21.5416 42.0038C21.6613 42.1458 21.8105 42.26 21.979 42.3383C22.1474 42.4166 22.3309 42.4572 22.5167 42.4572C22.7024 42.4572 22.8859 42.4166 23.0543 42.3383C23.2228 42.26 23.3721 42.1458 23.4918 42.0038L41.4935 23.777C48.9942 16.2013 43.6687 3 33.0177 3C26.6421 3 23.6418 7.72546 22.5167 8.62554C21.3915 7.72546 18.4663 3 12.0156 3C1.36462 3 -4.0359 16.1263 3.53983 23.777L21.5416 42.0038Z" fill="#F12616"/>
<path d="M17.5098 16.7217H15.0488V25H13.0322V16.7217H10.6123V15.0469H17.5098V16.7217ZM25.4805 20.9189C25.4805 22.2542 25.1637 23.291 24.5303 24.0293C23.9014 24.7676 23.0264 25.1367 21.9053 25.1367C20.7887 25.1367 19.9115 24.7721 19.2734 24.043C18.6354 23.3092 18.3118 22.2839 18.3027 20.9668V19.2646C18.3027 17.8975 18.6195 16.8311 19.2529 16.0654C19.8864 15.2952 20.766 14.9102 21.8916 14.9102C22.999 14.9102 23.8717 15.2884 24.5098 16.0449C25.1478 16.7969 25.4714 17.8542 25.4805 19.2168V20.9189ZM23.4639 19.251C23.4639 18.3532 23.3363 17.6855 23.0811 17.248C22.8258 16.8105 22.4294 16.5918 21.8916 16.5918C21.3584 16.5918 20.9642 16.8037 20.709 17.2275C20.4538 17.6468 20.3216 18.2871 20.3125 19.1484V20.9189C20.3125 21.7894 20.4424 22.432 20.7021 22.8467C20.9619 23.2568 21.363 23.4619 21.9053 23.4619C22.4294 23.4619 22.819 23.2614 23.0742 22.8604C23.3294 22.4548 23.4593 21.8281 23.4639 20.9805V19.251ZM33.9092 25H31.8994V16.7217H28.9463V25H26.9365V15.0469H33.9092V25Z" fill="white"/>
</svg>
